<svg width="61" height="58" viewBox="0 0 61 58" fill="none" xmlns="http://www.w3.org/2000/svg">
<g clip-path="url(#clip0_84_508)">
<path d="M54.8631 36.9154L54.2837 35.2591L52.6535 35.9756C49.5249 37.3503 47.0819 36.1649 44.2529 34.7924C40.5796 33.0102 36.0673 30.8203 30.4125 36.0234C24.758 30.8205 20.2455 33.0101 16.5721 34.7924C13.7433 36.165 11.3002 37.3504 8.17154 35.9756L6.54127 35.2591L5.96207 36.9154C5.08697 39.4175 5.26255 41.9378 6.47008 44.2039C7.52066 46.1753 9.32604 47.9069 11.6912 49.2118C17.2755 52.2928 25.4324 52.6558 30.4125 48.3693C32.9842 50.5828 36.4021 51.5566 39.8763 51.5564C43.13 51.5563 46.4332 50.7019 49.1339 49.2119C51.4991 47.907 53.3044 46.1754 54.355 44.204C55.5626 41.9378 55.7383 39.4174 54.8631 36.9154Z" fill="#1878E5"/>
<path d="M52.6762 10.1635C49.471 6.80942 44.4731 6.80942 42.0708 6.80942C42.0689 6.80942 42.0667 6.80942 42.0648 6.80942H18.754H18.7539C16.3519 6.80942 11.3538 6.80942 8.14858 10.1635C6.09702 12.3104 5.19174 15.4119 5.45785 19.3814C5.67524 22.6232 6.86528 25.3823 8.89946 27.3604C10.9858 29.3893 13.8208 30.4617 17.0977 30.4617C20.4697 30.4617 23.921 28.7919 26.8157 25.7596C28.2856 24.22 29.5136 22.4275 30.4125 20.5871C31.3114 22.4275 32.5394 24.22 34.0093 25.7596C36.904 28.7918 40.3553 30.4617 43.7273 30.4617C47.0043 30.4617 49.8392 29.3894 51.9255 27.3604C53.9596 25.3825 55.1497 22.6232 55.367 19.3816C55.6331 15.4119 54.7278 12.3105 52.6762 10.1635ZM18.754 10.005C19.9409 10.005 22.971 10.0916 25.4676 10.8923C26.2677 11.1489 26.9252 11.4482 27.4389 11.7882H11.1504C13.4335 10.0061 16.8442 10.005 18.754 10.005ZM17.0977 27.2659C15.0405 27.2659 13.2476 26.711 11.8558 25.656H21.9702C20.3729 26.7067 18.7043 27.2659 17.0977 27.2659ZM25.4092 22.4604H9.44487C9.17339 21.8003 8.97339 21.0839 8.84643 20.32H26.8799C26.4481 21.0575 25.9546 21.7787 25.4092 22.4604ZM28.3193 17.1242H8.70561C8.75854 16.3452 8.88052 15.6318 9.06929 14.9838H28.7752C28.7079 15.6643 28.5525 16.3854 28.3193 17.1242ZM35.3574 10.8923C37.854 10.0915 40.884 10.005 42.0712 10.005C43.9809 10.005 47.3915 10.0061 49.6746 11.7882H33.3861C33.8999 11.4482 34.5573 11.1489 35.3574 10.8923ZM43.7274 27.2659C42.1209 27.2659 40.4522 26.7066 38.8549 25.656H48.9693C47.5775 26.7111 45.7846 27.2659 43.7274 27.2659ZM51.3803 22.4604H35.4159C34.8705 21.7788 34.3769 21.0575 33.9453 20.32H51.9787C51.8519 21.0839 51.6519 21.8002 51.3803 22.4604ZM32.5058 17.1242C32.2725 16.3854 32.1172 15.6642 32.0499 14.9838H51.7559C51.9447 15.6318 52.0666 16.3452 52.1196 17.1242H32.5058Z" fill="#1878E5"/>
</g>
<defs>
<clipPath id="clip0_84_508">
<rect width="50" height="49" fill="white" transform="translate(5.41248 4.68289)"/>
</clipPath>
</defs>
</svg>
