<svg width="65" height="55" viewBox="0 0 65 55" fill="none" xmlns="http://www.w3.org/2000/svg">
<g clip-path="url(#clip0_84_498)">
<path d="M62.974 33.6007L60.7502 31.4022C59.959 30.6188 58.9047 30.1873 57.7812 30.1873C57.0628 30.1873 56.3732 30.3646 55.762 30.6965L51.5713 26.5468L51.7754 26.3447C53.4755 24.6558 53.4749 21.9115 51.7753 20.2283C51.1679 19.625 50.41 19.2228 49.5839 19.0535C49.6977 18.6642 49.7575 18.2565 49.7575 17.8393C49.7575 16.6799 49.3033 15.5928 48.481 14.781C47.8735 14.1777 47.1158 13.7755 46.2897 13.6062C46.4034 13.2169 46.4633 12.8094 46.4633 12.392C46.4633 11.2325 46.009 10.1456 45.1854 9.33249C44.5634 8.71658 43.7988 8.32671 42.9959 8.16077C43.4254 6.69262 43.0584 5.04082 41.8934 3.88385C40.9237 2.92652 39.6078 2.51508 38.3397 2.64843L30.0353 1.09006C28.7688 0.851877 27.1872 0.694367 26.1888 1.59717C26.1258 1.65417 26.0615 1.71973 25.9983 1.79272C24.4503 1.23332 22.6448 1.56643 21.4052 2.79404C20.5828 3.60836 20.1298 4.69494 20.1298 5.85365C20.1298 6.27103 20.1894 6.67862 20.303 7.06799C19.4778 7.23715 18.7209 7.63892 18.1155 8.24021C17.2915 9.05378 16.8372 10.1391 16.8363 11.2965C16.8359 11.7148 16.8958 12.1238 17.01 12.5142C16.1844 12.6829 15.427 13.084 14.8198 13.6853C13.9958 14.5013 13.542 15.5885 13.542 16.7466C13.542 17.6337 13.8092 18.4787 14.3042 19.1925C13.6792 19.4026 13.1067 19.7522 12.6273 20.2269C10.926 21.9115 10.9254 24.6559 12.6284 26.3473L12.8318 26.548L8.64053 30.6957C7.08291 29.9686 5.16378 30.241 3.87841 31.5137L1.65316 33.7136C0.861656 34.4974 0.425906 35.5428 0.425781 36.6573C0.425781 37.7718 0.861656 38.8174 1.65316 39.6012L4.43028 42.3512C4.92216 42.8383 5.71928 42.8378 6.21053 42.3502C6.70191 41.8625 6.70141 41.0722 6.20953 40.5852L3.43241 37.8353C3.11716 37.5231 2.94353 37.1048 2.94353 36.6574C2.94353 36.2101 3.11716 35.7919 3.43166 35.4805L5.65703 33.2804C6.21303 32.7298 7.06403 32.6478 7.71028 33.0308C7.75578 33.0986 7.80841 33.163 7.86866 33.2229C7.97653 33.3301 8.09966 33.4123 8.23041 33.4724L20.992 46.1057C21.0527 46.2367 21.1359 46.36 21.2445 46.4678C21.3503 46.5728 21.4709 46.654 21.5989 46.7137C21.8688 47.0162 22.0179 47.4026 22.0179 47.8148C22.0179 48.2622 21.8443 48.6804 21.529 48.9926L19.3059 51.194C18.649 51.8424 17.5805 51.8423 16.9257 51.196L14.1485 48.4425C13.6569 47.9551 12.8599 47.9551 12.3683 48.4425C11.8767 48.9299 11.8767 49.72 12.3683 50.2074L15.1474 52.9629C15.9654 53.7705 17.0397 54.1742 18.1144 54.1742C19.1894 54.1742 20.2649 53.7699 21.0839 52.9615L23.3084 50.7588C24.0999 49.9749 24.5358 48.9295 24.5358 47.8148C24.5358 47.0193 24.3127 46.2596 23.8978 45.6046L28.6148 40.9338C28.6198 40.9287 28.6248 40.9236 28.6299 40.9186C29.17 40.365 30.6742 40.4686 32.1288 40.5687C33.1623 40.64 34.3145 40.7192 35.4403 40.5905L40.6058 45.7056C40.2712 46.3105 40.0925 46.9933 40.0925 47.7044C40.0925 48.8178 40.5284 49.8627 41.3199 50.6465L43.5445 52.8493C44.3355 53.6326 45.3899 54.0641 46.5134 54.0641C47.6368 54.0641 48.6912 53.6327 49.4823 52.8493L62.9749 39.4888C63.7664 38.7051 64.2023 37.6597 64.2023 36.5451C64.2022 35.4306 63.7663 34.3852 62.974 33.6007ZM29.5665 3.54255L35.0274 4.5673L31.7588 7.80659C31.2532 7.56568 30.5602 7.11633 29.7999 6.39533C28.7593 5.40838 28.0149 4.26888 27.9472 3.55817C27.947 3.5578 27.947 3.55742 27.947 3.55705C27.947 3.55693 27.9469 3.55681 27.9469 3.55668C27.942 3.50562 27.9408 3.46485 27.9414 3.43375C28.106 3.39409 28.5433 3.3501 29.5665 3.54255ZM23.1843 4.56011C23.822 3.92846 24.8128 3.85559 25.5334 4.3394C25.9418 6.03693 27.4024 7.57547 28.0595 8.19882C28.5465 8.66081 30.1092 10.0459 31.6864 10.4266C31.8998 10.7299 32.0159 11.0914 32.0159 11.4728C32.0159 11.9642 31.8253 12.4236 31.4779 12.7676C31.1315 13.1116 30.6674 13.301 30.1709 13.301C29.6743 13.301 29.2102 13.1116 28.8622 12.766L28.862 12.7659L28.8614 12.7652L23.1842 7.14693C22.838 6.80428 22.6474 6.34489 22.6474 5.85365C22.6475 5.36228 22.8382 4.90289 23.1843 4.56011ZM19.8948 10.0063C20.2412 9.66238 20.7048 9.4729 21.2005 9.4729C21.6969 9.4729 22.162 9.66275 22.5107 10.008L27.0822 14.5312C27.802 15.246 27.802 16.4091 27.0847 17.1215C26.7364 17.4654 26.2707 17.6547 25.7733 17.6547C25.2759 17.6547 24.8102 17.4654 24.4634 17.123L24.4633 17.1228L20.9952 13.6853C20.9898 13.6799 20.9839 13.675 20.9784 13.6695L19.8934 12.5943C19.5453 12.2496 19.3537 11.7893 19.354 11.2983C19.3545 10.8089 19.5455 10.351 19.8948 10.0063ZM16.599 15.4513C16.9457 15.1082 17.4103 14.9192 17.9075 14.9192C18.4007 14.9192 18.8613 15.1054 19.2064 15.4426L22.6852 18.8899C23.032 19.2324 23.2232 19.6913 23.2232 20.1821C23.2232 20.6727 23.032 21.1316 22.6838 21.4755C22.3373 21.8185 21.8732 22.0075 21.3768 22.0075C20.8797 22.0075 20.414 21.818 20.067 21.4755L18.8059 20.2267C18.8057 20.2263 18.8053 20.2261 18.805 20.2258L16.5992 18.0415C16.2514 17.6971 16.0599 17.2371 16.0599 16.7463C16.0599 16.2557 16.2514 15.7956 16.599 15.4513ZM14.4065 21.9929C14.7547 21.6481 15.2199 21.4583 15.7165 21.4583C16.213 21.4583 16.6782 21.648 17.0262 21.9925L18.289 23.243C18.636 23.5856 18.827 24.0445 18.827 24.5352C18.827 25.026 18.6359 25.4847 18.2864 25.83C17.94 26.1739 17.4759 26.3634 16.9794 26.3634C16.4828 26.3634 16.0187 26.174 15.6698 25.8275L15.5117 25.6714C15.5095 25.6693 15.5079 25.667 15.5059 25.665C15.5035 25.6628 15.501 25.6608 15.4987 25.6586L14.4078 24.5813C13.6879 23.8661 13.6873 22.7051 14.4065 21.9929ZM40.0608 36.1772C39.5694 35.6894 38.7723 35.689 38.2805 36.1761L37.1605 37.2851C36.0963 38.3402 34.1679 38.2073 32.303 38.0791C30.2779 37.9395 28.1838 37.7955 26.8287 39.1748L22.1918 43.7663L10.5964 32.2874L14.6999 28.2265C15.3782 28.6386 16.1608 28.8596 16.9797 28.8596C18.1495 28.8596 19.2465 28.41 20.0659 27.5962C20.8908 26.7817 21.3452 25.6948 21.3452 24.5353C21.3452 24.5246 21.3444 24.5139 21.3444 24.5031C21.3553 24.5032 21.3662 24.5039 21.377 24.5039C22.5453 24.5039 23.6414 24.0556 24.4619 23.2432C25.2868 22.4287 25.7412 21.3416 25.7412 20.1823C25.7412 20.1715 25.7404 20.1609 25.7404 20.1501C25.7514 20.1501 25.7624 20.1508 25.7735 20.1508C26.9414 20.1508 28.0382 19.7031 28.8642 18.8875C29.7217 18.036 30.1458 16.915 30.1377 15.7963C30.1489 15.7965 30.1602 15.7971 30.1714 15.7971C31.3413 15.797 32.4382 15.3475 33.2588 14.5324C34.0812 13.7181 34.5342 12.6315 34.5342 11.4728C34.5342 10.6625 34.3119 9.8878 33.8975 9.21674L37.4942 5.65251C37.7622 5.38793 38.0927 5.22187 38.439 5.15334C38.4765 5.14937 38.5135 5.14343 38.5502 5.13624C39.1059 5.06027 39.6895 5.2303 40.1145 5.64991C40.8344 6.36484 40.8344 7.52801 40.1172 8.24033L39.0218 9.32183C39.0182 9.32543 39.0143 9.32865 39.0107 9.33224L37.749 10.5809C37.257 11.0679 37.2565 11.8582 37.7479 12.3459C38.2394 12.8336 39.0364 12.834 39.5282 12.347L40.6279 11.2582C40.6282 11.2579 40.6284 11.2577 40.6287 11.2574L40.7949 11.0932C41.5168 10.3841 42.6863 10.3856 43.4074 11.0995C43.7544 11.4421 43.9455 11.901 43.9455 12.3917C43.9455 12.8823 43.7544 13.3412 43.4047 13.6865L42.303 14.7809C42.3029 14.781 42.3028 14.7811 42.3027 14.7814L41.0412 16.027C40.5485 16.5134 40.5469 17.3036 41.0375 17.7919C41.5282 18.2803 42.3252 18.2818 42.8178 17.7955L44.085 16.5442C44.4314 16.2002 44.8955 16.0108 45.392 16.0108C45.8887 16.0108 46.3529 16.2002 46.7018 16.5467C47.0488 16.8894 47.2398 17.3483 47.2398 17.839C47.2398 18.3296 47.0488 18.7885 46.6998 19.133L44.5035 21.3113C44.012 21.7988 44.0122 22.589 44.5038 23.0762C44.7497 23.3199 45.0717 23.4416 45.3938 23.4416C45.716 23.4416 46.0383 23.3196 46.284 23.0759L47.3604 22.0084C47.3665 22.0025 47.3732 21.9975 47.3793 21.9914C47.7257 21.6474 48.1898 21.458 48.6863 21.458C49.1829 21.458 49.647 21.6474 49.9947 21.9926C50.7138 22.7048 50.7132 23.866 49.9947 24.5796L48.9003 25.6633C48.8999 25.6637 48.8994 25.664 48.899 25.6644C48.8987 25.6648 48.8983 25.6653 48.8979 25.6657L47.1609 27.3856C46.669 27.8728 46.6685 28.663 47.1598 29.1507C47.4057 29.3947 47.7282 29.5168 48.0505 29.5168C48.3724 29.5168 48.6944 29.3951 48.9402 29.1518L49.7898 28.3105L53.8619 32.3429L42.2675 43.8236L38.1133 39.71C38.4029 39.5254 38.68 39.3083 38.9402 39.0504L40.0595 37.942C40.5517 37.4551 40.5522 36.6648 40.0608 36.1772ZM61.1955 37.7228L47.7029 51.0832C47.3873 51.3957 46.9648 51.5679 46.5133 51.5679C46.0618 51.5679 45.6393 51.3957 45.3235 51.0831L43.0989 48.8803C42.7837 48.5683 42.61 48.1506 42.61 47.7044C42.61 47.2582 42.7837 46.8406 43.0989 46.5284L56.5915 33.168C56.9073 32.8553 57.3297 32.6832 57.7813 32.6832C58.2328 32.6832 58.6553 32.8553 58.9718 33.1687L61.1957 35.3673C61.5109 35.6795 61.6845 36.0976 61.6845 36.545C61.6844 36.9925 61.5108 37.4107 61.1955 37.7228Z" fill="white"/>
<path d="M8.16656 44.4094C7.67918 44.9009 7.68593 45.6912 8.18181 46.1744L8.18543 46.1778C8.43006 46.4163 8.74768 46.535 9.06518 46.535C9.39106 46.535 9.71693 46.41 9.96381 46.161C10.4512 45.6695 10.4426 44.8775 9.94681 44.3943C9.45118 43.9111 8.65418 43.9179 8.16656 44.4094Z" fill="white"/>
<path d="M43.14 34.3794C43.3315 34.3794 43.5258 34.3361 43.7081 34.245C44.3289 33.9346 44.5783 33.1841 44.2653 32.5687C43.9521 31.9533 43.195 31.7059 42.5744 32.0164L42.5674 32.0198C41.9466 32.3303 41.7008 33.079 42.0138 33.6944C42.2348 34.1292 42.6792 34.3794 43.14 34.3794Z" fill="white"/>
</g>
<defs>
<clipPath id="clip0_84_498">
<rect width="64" height="54" fill="white" transform="translate(0.62439 0.22345)"/>
</clipPath>
</defs>
</svg>
