<svg width="51" height="55" viewBox="0 0 51 55" fill="none" xmlns="http://www.w3.org/2000/svg">
<g clip-path="url(#clip0_84_559)">
<path d="M23.6967 51.8937C34.458 53.266 44.1415 46.3768 45.492 36.5278C46.3874 29.998 41.0151 25.9906 36.3085 21.4838C34.6639 19.0945 33.8165 15.7309 35.3961 10.0238C33.8449 9.92733 31.9739 10.7355 30.0679 12.2363C29.3089 8.98073 29.8824 5.08583 32.8041 0.109662C24.8018 -0.910849 5.67235 14.7099 6.52191 31.5569C7.02213 41.4807 12.9355 50.521 23.6967 51.8937ZM28.147 20.8183C22.9167 32.7047 37.6988 32.358 37.5438 40.1661C37.4555 44.5987 34.2921 48.3323 29.9329 49.6235C30.5246 48.8594 30.8965 47.9118 30.9448 46.8727C31.2028 41.3414 24.1841 41.1909 25.2416 37.0228C23.1335 38.4745 21.0392 42.1459 21.3184 46.4503C21.3832 47.4469 21.6693 48.3879 22.1405 49.181C18.5675 47.5583 16.2911 43.9902 15.6128 39.9635C14.0495 30.6845 23.6437 20.7769 28.147 20.8183Z" fill="#FF8B42"/>
</g>
<defs>
<clipPath id="clip0_84_559">
<rect width="50" height="54" fill="white" transform="translate(0.908813 0.0622101)"/>
</clipPath>
</defs>
</svg>
