<svg width="61" height="58" viewBox="0 0 61 58" fill="none" xmlns="http://www.w3.org/2000/svg">
<g clip-path="url(#clip0_84_139)">
<path d="M54.5455 11.9512C49.148 6.52438 41.081 5.40967 34.5395 8.51912L31.7234 5.70301C31.452 5.43107 31.1296 5.21532 30.7747 5.06812C30.4199 4.92091 30.0395 4.84514 29.6553 4.84514C29.2711 4.84514 28.8907 4.92091 28.5358 5.06812C28.1809 5.21532 27.8586 5.43107 27.5872 5.70301L27.3525 5.96702C26.9418 3.12158 24.5071 0.921501 21.5736 0.921501C18.3469 0.921501 15.7068 3.5616 15.7068 6.78838C15.7068 7.05239 15.7068 7.3164 15.7948 7.55108C14.0054 8.57778 12.7733 10.4552 12.7733 12.6553C12.7733 14.0047 13.2427 15.2074 14.0054 16.2047C13.6291 16.4637 13.3206 16.8095 13.1062 17.2129C12.8917 17.6163 12.7776 18.0653 12.7733 18.5222V22.4823C5.9384 24.8877 1.03955 31.4 1.03955 39.0562C1.03955 48.7659 8.93051 56.6569 18.6402 56.6569C28.3499 56.6569 36.2409 48.7659 36.2409 39.0562C36.241 35.4189 35.1124 31.8712 33.0107 28.9026C30.909 25.9339 27.9378 23.6907 24.5071 22.4823V18.5222C24.5028 18.0653 24.3887 17.6163 24.1742 17.2129C23.9598 16.8095 23.6513 16.4637 23.275 16.2047C24.0377 15.2074 24.5071 14.0047 24.5071 12.6553C24.5071 12.3913 24.5071 12.1272 24.4191 11.8926C24.9471 11.5992 25.3871 11.1885 25.7685 10.8365C28.4966 12.3033 30.374 15.178 30.374 18.5222V18.7568C30.7553 18.9622 31.1073 19.2555 31.4887 19.4902C32.046 18.2581 32.8087 17.0554 33.8061 16.0874C36.0108 13.8912 38.9959 12.6582 42.1077 12.6582C45.2196 12.6582 48.2047 13.8912 50.4094 16.0874C52.6055 18.2921 53.8386 21.2772 53.8386 24.389C53.8386 27.5009 52.6055 30.486 50.4094 32.6907C48.0626 35.0374 45.0412 36.1228 41.9024 36.1228C42.1077 37.0615 42.1077 38.0589 42.1077 39.0562C42.1077 40.0536 42.0197 41.0216 41.9024 41.9897C46.5079 41.9897 51.0547 40.3176 54.5455 36.8268C56.1846 35.1967 57.4853 33.2586 58.3728 31.1241C59.2604 28.9896 59.7173 26.7007 59.7173 24.389C59.7173 22.0773 59.2604 19.7885 58.3728 17.6539C57.4853 15.5194 56.1846 13.5814 54.5455 11.9512ZM21.5736 3.85494C23.187 3.85494 24.5071 5.17499 24.5071 6.78838C24.5071 7.75642 24.0084 8.57778 23.275 9.1058C22.219 7.69775 20.5469 6.78838 18.6402 6.78838C18.6402 5.17499 19.9603 3.85494 21.5736 3.85494ZM16.9388 10.3378C17.9948 11.7459 19.6669 12.6553 21.5736 12.6553C21.5736 14.2687 20.2536 15.5887 18.6402 15.5887C17.0268 15.5887 15.7068 14.2687 15.7068 12.6553C15.7068 11.6872 16.2054 10.8659 16.9388 10.3378ZM30.374 39.0562C30.374 45.5392 25.1231 50.79 18.6402 50.79C12.1573 50.79 6.90643 45.5392 6.90643 39.0562C6.90643 32.5733 12.1573 27.3225 18.6402 27.3225C25.1231 27.3225 30.374 32.5733 30.374 39.0562Z" fill="#DE0D53"/>
</g>
<defs>
<clipPath id="clip0_84_139">
<rect width="59.5752" height="56.6152" fill="white" transform="translate(0.719727 0.406845)"/>
</clipPath>
</defs>
</svg>
