<svg width="57" height="57" viewBox="0 0 57 57" fill="none" xmlns="http://www.w3.org/2000/svg">
<g clip-path="url(#clip0_35_709)">
<g clip-path="url(#clip1_35_709)">
<path d="M22.6469 1.37114L4.41123 1.34265C3.60516 1.34139 2.83161 1.66039 2.26074 2.22947C1.68988 2.79856 1.36846 3.57111 1.3672 4.37718L1.33871 22.6129C1.33745 23.4189 1.65645 24.1925 2.22553 24.7633C2.79462 25.3342 3.56717 25.6556 4.37324 25.6569L22.6089 25.6854C23.415 25.6866 24.1885 25.3676 24.7594 24.7986C25.3303 24.2295 25.6517 23.4569 25.6529 22.6508L25.6814 4.41517C25.6827 3.6091 25.3637 2.83555 24.7946 2.26468C24.2255 1.69382 23.453 1.3724 22.6469 1.37114ZM53.0397 1.41863L34.804 1.39014C33.998 1.38888 33.2244 1.70788 32.6535 2.27696C32.0827 2.84605 31.7613 3.6186 31.76 4.42467L31.7315 22.6603C31.7302 23.4664 32.0492 24.24 32.6183 24.8108C33.1874 25.3817 33.96 25.7031 34.766 25.7044L53.0017 25.7329C53.8078 25.7341 54.5813 25.4151 55.1522 24.846C55.7231 24.277 56.0445 23.5044 56.0457 22.6983L56.0742 4.46266C56.0755 3.65659 55.7565 2.88304 55.1874 2.31217C54.6183 1.74131 53.8458 1.41989 53.0397 1.41863ZM22.5994 31.7639L4.36374 31.7354C3.55767 31.7342 2.78412 32.0532 2.21325 32.6223C1.64239 33.1914 1.32097 33.9639 1.31971 34.77L1.29122 53.0057C1.28996 53.8117 1.60896 54.5853 2.17804 55.1561C2.74713 55.727 3.51968 56.0484 4.32575 56.0497L22.5614 56.0782C23.3675 56.0794 24.141 55.7604 24.7119 55.1914C25.2828 54.6223 25.6042 53.8497 25.6055 53.0436L25.634 34.808C25.6352 34.0019 25.3162 33.2283 24.7471 32.6575C24.178 32.0866 23.4055 31.7652 22.5994 31.7639ZM46.9089 34.8412L40.8303 34.8317L40.8209 40.9103L34.7423 40.9008L34.7328 46.9793L40.8114 46.9888L40.8019 53.0674L46.8804 53.0769L46.8899 46.9983L52.9685 47.0078L52.978 40.9293L46.8994 40.9198L46.9089 34.8412Z" fill="white"/>
</g>
</g>
<defs>
<clipPath id="clip0_35_709">
<rect width="55.273" height="55.9048" fill="white" transform="translate(1.03442 0.719055) rotate(0.0895245)"/>
</clipPath>
<clipPath id="clip1_35_709">
<rect width="77.543" height="77.543" fill="white" transform="translate(-5.00146 -10.09) rotate(0.0895245)"/>
</clipPath>
</defs>
</svg>
