<svg width="57" height="51" viewBox="0 0 57 51" fill="none" xmlns="http://www.w3.org/2000/svg">
<g clip-path="url(#clip0_84_476)">
<g clip-path="url(#clip1_84_476)">
<path d="M23.0894 7.52877C27.2318 1.97446 33.46 0.352513 39.1893 1.9132C45.3737 3.59641 50.8114 8.9086 52.6171 16.3066C52.7104 16.6858 52.7911 17.065 52.8592 17.4443C50.2525 16.5154 47.4172 16.4439 44.767 17.2401C41.0126 14.4629 36.3626 13.9962 32.2289 15.5189C27.051 17.4297 23.0077 22.2751 22.0713 28.372C20.8753 36.1784 25.6303 43.1913 32.3544 49.154L33.4862 50.1342C32.5732 50.1983 31.6455 50.0554 30.7587 49.8658C30.303 49.7677 29.8497 49.6588 29.3993 49.539L27.8328 49.1015C13.9061 45.1837 4.58285 39.0547 1.9078 29.8948C-0.227575 22.5843 1.82612 15.2651 6.34191 10.7143C10.5251 6.49901 16.7271 4.78954 23.0894 7.52877ZM27.8386 29.2559C29.0871 21.1112 38.5067 17.0971 43.3434 24.0867C43.3897 24.1516 43.4598 24.1957 43.5385 24.2094C43.6171 24.223 43.6979 24.2051 43.7635 24.1596C50.6976 19.2471 58.1743 26.2395 56.5611 34.3201C55.6276 39.0071 51.281 42.8966 43.5213 45.9888L42.2524 46.4848L41.4851 46.7998C40.8229 47.0594 40.1228 47.2666 39.4898 47.1557C38.8597 47.0449 38.2733 46.6073 37.7395 46.1405L36.8352 45.3237C30.0868 39.5166 27.0879 34.1607 27.8386 29.2559Z" fill="#FF459F"/>
</g>
</g>
<defs>
<clipPath id="clip0_84_476">
<rect width="56.1641" height="49.8203" fill="white" transform="translate(0.740356 0.866516)"/>
</clipPath>
<clipPath id="clip1_84_476">
<rect width="70.0123" height="70.0123" fill="white" transform="translate(-4.61804 -9.37042)"/>
</clipPath>
</defs>
</svg>
