<svg width="360" height="97" viewBox="0 0 360 97" fill="none" xmlns="http://www.w3.org/2000/svg">
<rect x="0.860352" y="0.29837" width="358.28" height="95.9257" rx="27" fill="url(#paint0_linear_49_1549)"/>
<g clip-path="url(#clip0_49_1549)">
<path d="M79.0455 31.498C73.648 26.0712 65.581 24.9565 59.0395 28.0659L56.2234 25.2498C55.952 24.9779 55.6296 24.7621 55.2747 24.6149C54.9199 24.4677 54.5395 24.3919 54.1553 24.3919C53.7711 24.3919 53.3907 24.4677 53.0358 24.6149C52.6809 24.7621 52.3586 24.9779 52.0872 25.2498L51.8525 25.5138C51.4418 22.6684 49.0071 20.4683 46.0736 20.4683C42.8469 20.4683 40.2068 23.1084 40.2068 26.3352C40.2068 26.5992 40.2068 26.8632 40.2948 27.0979C38.5054 28.1246 37.2733 30.002 37.2733 32.2021C37.2733 33.5515 37.7427 34.7542 38.5054 35.7515C38.1291 36.0105 37.8206 36.3563 37.6062 36.7597C37.3917 37.1631 37.2776 37.6121 37.2733 38.069V42.0291C30.4384 44.4345 25.5396 50.9468 25.5396 58.6031C25.5396 68.3127 33.4305 76.2037 43.1402 76.2037C52.8499 76.2037 60.7409 68.3127 60.7409 58.6031C60.741 54.9657 59.6124 51.418 57.5107 48.4494C55.409 45.4808 52.4378 43.2375 49.0071 42.0291V38.069C49.0028 37.6121 48.8887 37.1631 48.6742 36.7597C48.4598 36.3563 48.1513 36.0105 47.775 35.7515C48.5377 34.7542 49.0071 33.5515 49.0071 32.2021C49.0071 31.9381 49.0071 31.6741 48.9191 31.4394C49.4471 31.146 49.8871 30.7354 50.2685 30.3833C52.9966 31.8501 54.874 34.7248 54.874 38.069V38.3036C55.2553 38.509 55.6073 38.8023 55.9887 39.037C56.546 37.8049 57.3087 36.6022 58.3061 35.6342C60.5108 33.438 63.4959 32.205 66.6077 32.205C69.7196 32.205 72.7047 33.438 74.9094 35.6342C77.1055 37.8389 78.3386 40.824 78.3386 43.9358C78.3386 47.0477 77.1055 50.0328 74.9094 52.2375C72.5626 54.5842 69.5412 55.6696 66.4024 55.6696C66.6077 56.6083 66.6077 57.6057 66.6077 58.6031C66.6077 59.6004 66.5197 60.5685 66.4024 61.5365C71.0079 61.5365 75.5547 59.8644 79.0455 56.3736C80.6846 54.7435 81.9853 52.8054 82.8728 50.6709C83.7604 48.5364 84.2173 46.2475 84.2173 43.9358C84.2173 41.6242 83.7604 39.3353 82.8728 37.2008C81.9853 35.0662 80.6846 33.1282 79.0455 31.498ZM46.0736 23.4017C47.687 23.4017 49.0071 24.7218 49.0071 26.3352C49.0071 27.3032 48.5084 28.1246 47.775 28.6526C46.719 27.2446 45.0469 26.3352 43.1402 26.3352C43.1402 24.7218 44.4603 23.4017 46.0736 23.4017ZM41.4388 29.8847C42.4948 31.2927 44.1669 32.2021 46.0736 32.2021C46.0736 33.8155 44.7536 35.1355 43.1402 35.1355C41.5268 35.1355 40.2068 33.8155 40.2068 32.2021C40.2068 31.234 40.7054 30.4127 41.4388 29.8847ZM54.874 58.6031C54.874 65.086 49.6231 70.3368 43.1402 70.3368C36.6573 70.3368 31.4064 65.086 31.4064 58.6031C31.4064 52.1201 36.6573 46.8693 43.1402 46.8693C49.6231 46.8693 54.874 52.1201 54.874 58.6031Z" fill="#DE0D53"/>
</g>
<path d="M114.912 30.8076H109.652V16.5759H114.905C116.355 16.5759 117.604 16.8608 118.651 17.4307C119.702 17.9958 120.513 18.8112 121.083 19.8767C121.653 20.9376 121.938 22.207 121.938 23.6848C121.938 25.1673 121.653 26.4413 121.083 27.5068C120.518 28.5723 119.709 29.39 118.658 29.9598C117.606 30.525 116.358 30.8076 114.912 30.8076ZM113.092 27.8751H114.78C115.577 27.8751 116.251 27.7407 116.802 27.472C117.358 27.1987 117.778 26.7563 118.06 26.1448C118.347 25.5286 118.491 24.7086 118.491 23.6848C118.491 22.661 118.347 21.8456 118.06 21.2387C117.773 20.6272 117.349 20.1871 116.788 19.9184C116.233 19.6451 115.547 19.5084 114.732 19.5084H113.092V27.8751ZM123.946 30.8076V20.1338H127.344V30.8076H123.946ZM125.649 18.89C125.171 18.89 124.761 18.7324 124.419 18.4174C124.076 18.0978 123.904 17.7132 123.904 17.2639C123.904 16.8191 124.076 16.4393 124.419 16.1242C124.761 15.8046 125.171 15.6447 125.649 15.6447C126.13 15.6447 126.54 15.8046 126.879 16.1242C127.221 16.4393 127.393 16.8191 127.393 17.2639C127.393 17.7132 127.221 18.0978 126.879 18.4174C126.54 18.7324 126.13 18.89 125.649 18.89ZM129.507 30.8076V20.1338H132.808V22.0796H132.919C133.114 21.3754 133.431 20.8519 133.871 20.5091C134.311 20.1616 134.823 19.9879 135.407 19.9879C135.564 19.9879 135.726 19.9995 135.893 20.0226C136.06 20.0412 136.215 20.0713 136.359 20.113V23.0663C136.197 23.0107 135.983 22.9667 135.719 22.9343C135.46 22.9019 135.228 22.8857 135.025 22.8857C134.621 22.8857 134.258 22.976 133.934 23.1567C133.614 23.3327 133.361 23.5806 133.176 23.9002C132.995 24.2152 132.905 24.5859 132.905 25.0121V30.8076H129.507ZM144.265 20.1338V22.6355H137.531V20.1338H144.265ZM138.942 17.5766H142.34V27.4512C142.34 27.6597 142.373 27.8287 142.437 27.9585C142.507 28.0835 142.607 28.1739 142.736 28.2295C142.866 28.2804 143.021 28.3059 143.202 28.3059C143.332 28.3059 143.468 28.2943 143.612 28.2712C143.76 28.2434 143.871 28.2202 143.945 28.2017L144.46 30.6547C144.297 30.701 144.068 30.7589 143.772 30.8284C143.48 30.8979 143.13 30.9419 142.722 30.9605C141.926 30.9975 141.242 30.9049 140.672 30.6825C140.107 30.4555 139.674 30.1034 139.373 29.6262C139.076 29.1491 138.933 28.5491 138.942 27.8264V17.5766ZM148.077 34.8102C147.669 34.8102 147.284 34.7778 146.923 34.7129C146.562 34.6527 146.251 34.5716 145.992 34.4697L146.742 32.0028C147.076 32.114 147.377 32.1789 147.646 32.1974C147.919 32.2159 148.153 32.1719 148.348 32.0653C148.547 31.9634 148.7 31.7804 148.806 31.5164L148.938 31.1967L145.144 20.1338H148.702L150.669 27.75H150.78L152.774 20.1338H156.353L152.329 31.8291C152.135 32.4128 151.859 32.927 151.502 33.3718C151.15 33.8211 150.694 34.1732 150.133 34.428C149.578 34.6828 148.892 34.8102 148.077 34.8102ZM161.86 30.8076V16.5759H167.739C168.804 16.5759 169.724 16.7844 170.498 17.2013C171.276 17.6136 171.876 18.1904 172.297 18.9316C172.719 19.6682 172.93 20.5253 172.93 21.5028C172.93 22.4849 172.714 23.3443 172.284 24.0809C171.857 24.8129 171.248 25.3804 170.456 25.7834C169.664 26.1865 168.723 26.388 167.635 26.388H164.007V23.6778H166.995C167.514 23.6778 167.947 23.5875 168.295 23.4068C168.647 23.2262 168.913 22.9737 169.094 22.6494C169.275 22.3205 169.365 21.9383 169.365 21.5028C169.365 21.0627 169.275 20.6828 169.094 20.3632C168.913 20.0389 168.647 19.7887 168.295 19.6127C167.943 19.4366 167.51 19.3486 166.995 19.3486H165.3V30.8076H161.86ZM177.252 30.9882C176.571 30.9882 175.967 30.8747 175.438 30.6477C174.915 30.4161 174.5 30.0687 174.195 29.6054C173.893 29.1375 173.743 28.5514 173.743 27.8473C173.743 27.2543 173.847 26.754 174.056 26.3463C174.264 25.9386 174.551 25.6074 174.917 25.3526C175.283 25.0978 175.705 24.9055 176.182 24.7758C176.659 24.6414 177.169 24.5511 177.711 24.5048C178.318 24.4492 178.806 24.3913 179.177 24.3311C179.548 24.2662 179.816 24.1759 179.983 24.06C180.155 23.9396 180.24 23.7705 180.24 23.5528V23.518C180.24 23.1613 180.117 22.8857 179.872 22.6911C179.626 22.4965 179.295 22.3992 178.878 22.3992C178.429 22.3992 178.068 22.4965 177.794 22.6911C177.521 22.8857 177.347 23.1544 177.273 23.4972L174.139 23.386C174.232 22.7374 174.47 22.1583 174.855 21.6487C175.244 21.1345 175.777 20.7315 176.453 20.4396C177.134 20.1431 177.952 19.9949 178.906 19.9949C179.587 19.9949 180.215 20.0759 180.789 20.2381C181.364 20.3956 181.864 20.6272 182.29 20.933C182.716 21.2341 183.045 21.6047 183.277 22.0448C183.513 22.4849 183.631 22.9876 183.631 23.5528V30.8076H180.435V29.3205H180.351C180.161 29.6818 179.918 29.9876 179.622 30.2377C179.33 30.4879 178.985 30.6755 178.586 30.8006C178.193 30.9257 177.748 30.9882 177.252 30.9882ZM178.301 28.7646C178.667 28.7646 178.996 28.6904 179.288 28.5422C179.585 28.3939 179.821 28.1901 179.997 27.9307C180.173 27.6666 180.261 27.3608 180.261 27.0134V25.9988C180.164 26.0498 180.046 26.0961 179.907 26.1378C179.772 26.1795 179.624 26.2189 179.462 26.2559C179.3 26.293 179.133 26.3254 178.962 26.3532C178.79 26.381 178.626 26.4065 178.468 26.4297C178.149 26.4806 177.875 26.5594 177.648 26.6659C177.426 26.7725 177.254 26.9115 177.134 27.0829C177.018 27.2497 176.96 27.4489 176.96 27.6805C176.96 28.0326 177.085 28.3013 177.336 28.4866C177.59 28.6719 177.912 28.7646 178.301 28.7646ZM190.692 31.0091C189.566 31.0091 188.6 30.7775 187.794 30.3142C186.992 29.8509 186.376 29.207 185.945 28.3824C185.515 27.5531 185.299 26.5941 185.299 25.5054C185.299 24.4121 185.515 23.4532 185.945 22.6285C186.381 21.7993 186.999 21.153 187.801 20.6898C188.607 20.2265 189.568 19.9949 190.685 19.9949C191.671 19.9949 192.531 20.1732 193.263 20.5299C193.999 20.8866 194.574 21.3916 194.986 22.0448C195.403 22.6934 195.623 23.4555 195.646 24.3311H192.471C192.406 23.7844 192.22 23.3559 191.915 23.0455C191.614 22.7351 191.22 22.5799 190.733 22.5799C190.34 22.5799 189.994 22.6911 189.698 22.9135C189.401 23.1312 189.17 23.4555 189.003 23.8863C188.841 24.3125 188.76 24.8407 188.76 25.4707C188.76 26.1007 188.841 26.6335 189.003 27.069C189.17 27.4998 189.401 27.8264 189.698 28.0488C189.994 28.2665 190.34 28.3754 190.733 28.3754C191.048 28.3754 191.326 28.3082 191.567 28.1739C191.813 28.0395 192.014 27.8426 192.172 27.5832C192.329 27.3191 192.429 26.9995 192.471 26.6242H195.646C195.614 27.5045 195.394 28.2735 194.986 28.9313C194.583 29.5892 194.016 30.1011 193.284 30.4671C192.556 30.8284 191.692 31.0091 190.692 31.0091ZM200.45 28.0071L200.464 23.9558H200.936L203.938 20.1338H207.788L203.327 25.6097H202.43L200.45 28.0071ZM197.385 30.8076V16.5759H200.783V30.8076H197.385ZM204.015 30.8076L201.221 26.3741L203.459 23.9628L207.941 30.8076H204.015Z" fill="white"/>
<path d="M109.615 52.2675V51.0848L113.274 47.2939C113.664 46.8821 113.986 46.5213 114.24 46.2116C114.497 45.8983 114.689 45.6009 114.815 45.3193C114.942 45.0377 115.005 44.7385 115.005 44.4217C115.005 44.0627 114.921 43.753 114.752 43.4925C114.583 43.2285 114.353 43.0261 114.06 42.8853C113.768 42.741 113.439 42.6689 113.073 42.6689C112.686 42.6689 112.348 42.7481 112.059 42.9064C111.771 43.0648 111.549 43.2884 111.394 43.577C111.239 43.8656 111.162 44.2035 111.162 44.5907H109.604C109.604 43.9325 109.756 43.357 110.058 42.8642C110.361 42.3714 110.776 41.9895 111.304 41.7185C111.832 41.444 112.432 41.3067 113.105 41.3067C113.784 41.3067 114.382 41.4422 114.9 41.7132C115.421 41.9807 115.827 42.3468 116.119 42.8114C116.412 43.2725 116.558 43.7935 116.558 44.3742C116.558 44.7755 116.482 45.1679 116.331 45.5516C116.183 45.9353 115.924 46.3629 115.555 46.8346C115.185 47.3027 114.671 47.8712 114.013 48.54L111.864 50.7891V50.8683H116.732V52.2675H109.615ZM122.302 52.4153C121.64 52.4153 121.046 52.2886 120.518 52.0352C119.993 51.7782 119.574 51.4262 119.261 50.9792C118.948 50.5322 118.78 50.0218 118.759 49.4481H120.343C120.382 49.9127 120.588 50.2946 120.961 50.5938C121.334 50.893 121.781 51.0426 122.302 51.0426C122.717 51.0426 123.085 50.9475 123.406 50.7575C123.729 50.5639 123.983 50.2981 124.166 49.9602C124.352 49.6223 124.446 49.2369 124.446 48.8039C124.446 48.364 124.351 47.9715 124.161 47.6266C123.97 47.2816 123.708 47.0106 123.374 46.8135C123.043 46.6164 122.663 46.516 122.233 46.5125C121.906 46.5125 121.577 46.5688 121.246 46.6815C120.915 46.7941 120.648 46.9419 120.444 47.125L118.949 46.9032L119.557 41.4545H125.502V42.8537H120.914L120.57 45.879H120.634C120.845 45.6748 121.125 45.5041 121.473 45.3668C121.825 45.2295 122.202 45.1609 122.603 45.1609C123.261 45.1609 123.847 45.3175 124.361 45.6308C124.879 45.9441 125.285 46.3717 125.581 46.9138C125.88 47.4523 126.028 48.0718 126.024 48.7723C126.028 49.4727 125.869 50.0975 125.549 50.6466C125.232 51.1957 124.792 51.6286 124.229 51.9454C123.67 52.2587 123.027 52.4153 122.302 52.4153ZM131.548 41.3067C132.03 41.3102 132.506 41.3982 132.974 41.5707C133.442 41.7431 133.864 42.0247 134.241 42.4154C134.621 42.8061 134.924 43.3341 135.149 43.9994C135.378 44.6611 135.494 45.4847 135.498 46.4703C135.498 47.4171 135.403 48.2601 135.212 48.9993C135.022 49.7349 134.75 50.3562 134.394 50.8631C134.042 51.3699 133.614 51.7553 133.111 52.0193C132.608 52.2833 132.041 52.4153 131.411 52.4153C130.767 52.4153 130.195 52.2886 129.695 52.0352C129.195 51.7817 128.789 51.4315 128.475 50.9845C128.162 50.5339 127.967 50.0165 127.889 49.4322H129.5C129.605 49.8969 129.82 50.2735 130.144 50.5621C130.471 50.8472 130.894 50.9898 131.411 50.9898C132.203 50.9898 132.821 50.6448 133.264 49.9549C133.708 49.2615 133.931 48.2936 133.935 47.0511H133.85C133.667 47.3538 133.438 47.6142 133.164 47.8325C132.893 48.0507 132.588 48.2197 132.25 48.3393C131.913 48.459 131.552 48.5188 131.168 48.5188C130.545 48.5188 129.978 48.3657 129.468 48.0595C128.958 47.7533 128.551 47.3327 128.248 46.7976C127.946 46.2626 127.794 45.6519 127.794 44.9656C127.794 44.2827 127.949 43.6632 128.259 43.1071C128.572 42.5509 129.009 42.111 129.568 41.7871C130.132 41.4598 130.792 41.2996 131.548 41.3067ZM131.554 42.6794C131.142 42.6794 130.77 42.7815 130.44 42.9856C130.112 43.1863 129.853 43.4591 129.663 43.804C129.473 44.1454 129.378 44.5256 129.378 44.9444C129.378 45.3633 129.47 45.7434 129.653 46.0849C129.839 46.4228 130.093 46.692 130.413 46.8927C130.737 47.0898 131.107 47.1883 131.522 47.1883C131.832 47.1883 132.12 47.1285 132.388 47.0088C132.655 46.8892 132.889 46.7237 133.09 46.5125C133.291 46.2978 133.447 46.0549 133.56 45.7839C133.673 45.5129 133.729 45.2278 133.729 44.9286C133.729 44.5309 133.634 44.1613 133.444 43.8198C133.257 43.4784 133 43.2039 132.673 42.9962C132.346 42.785 131.972 42.6794 131.554 42.6794ZM144.777 52.4311C143.992 52.4311 143.316 52.2534 142.749 51.8979C142.186 51.5389 141.753 51.0443 141.45 50.4143C141.148 49.7842 140.996 49.0627 140.996 48.2496C140.996 47.4259 141.151 46.6991 141.461 46.069C141.771 45.4355 142.207 44.9409 142.77 44.5854C143.334 44.2299 143.997 44.0522 144.761 44.0522C145.377 44.0522 145.926 44.1666 146.408 44.3953C146.89 44.6206 147.279 44.9374 147.575 45.3457C147.874 45.754 148.052 46.2309 148.108 46.7765H146.572C146.487 46.3964 146.294 46.069 145.991 45.7945C145.692 45.5199 145.291 45.3827 144.787 45.3827C144.347 45.3827 143.962 45.4988 143.631 45.7311C143.304 45.9599 143.048 46.2873 142.865 46.7132C142.682 47.1355 142.591 47.6354 142.591 48.2126C142.591 48.8039 142.681 49.3143 142.86 49.7437C143.04 50.1732 143.293 50.5058 143.62 50.7416C143.951 50.9774 144.34 51.0954 144.787 51.0954C145.086 51.0954 145.358 51.0408 145.6 50.9317C145.847 50.8191 146.053 50.6589 146.218 50.4512C146.387 50.2436 146.505 49.9937 146.572 49.7015H148.108C148.052 50.226 147.881 50.6941 147.596 51.1059C147.311 51.5177 146.929 51.8416 146.45 52.0774C145.975 52.3132 145.417 52.4311 144.777 52.4311ZM152.157 52.447C151.643 52.447 151.178 52.3519 150.763 52.1619C150.347 51.9683 150.018 51.6885 149.775 51.3224C149.536 50.9563 149.416 50.5075 149.416 49.9761C149.416 49.5185 149.504 49.1419 149.68 48.8462C149.856 48.5505 150.094 48.3164 150.393 48.144C150.692 47.9715 151.027 47.8413 151.396 47.7533C151.766 47.6653 152.142 47.5984 152.526 47.5526C153.012 47.4963 153.406 47.4506 153.709 47.4154C154.011 47.3766 154.231 47.3151 154.369 47.2306C154.506 47.1461 154.575 47.0088 154.575 46.8188V46.7818C154.575 46.3207 154.444 45.9634 154.184 45.71C153.927 45.4566 153.543 45.3299 153.033 45.3299C152.501 45.3299 152.083 45.4478 151.776 45.6836C151.474 45.9159 151.264 46.1746 151.148 46.4597L149.664 46.1218C149.84 45.629 150.097 45.2313 150.435 44.9286C150.777 44.6224 151.169 44.4006 151.613 44.2633C152.056 44.1226 152.523 44.0522 153.012 44.0522C153.336 44.0522 153.679 44.0909 154.041 44.1683C154.407 44.2422 154.749 44.3795 155.066 44.5801C155.386 44.7808 155.648 45.0676 155.852 45.4407C156.057 45.8103 156.159 46.2908 156.159 46.8821V52.2675H154.617V51.1587H154.554C154.451 51.3629 154.298 51.5635 154.094 51.7606C153.89 51.9577 153.628 52.1214 153.308 52.2516C152.987 52.3819 152.604 52.447 152.157 52.447ZM152.5 51.1798C152.936 51.1798 153.309 51.0936 153.619 50.9211C153.932 50.7487 154.17 50.5234 154.332 50.2453C154.497 49.9637 154.58 49.6628 154.58 49.3425V48.2971C154.524 48.3534 154.414 48.4062 154.253 48.4555C154.094 48.5012 153.913 48.5417 153.709 48.5769C153.505 48.6086 153.306 48.6385 153.112 48.6667C152.919 48.6913 152.757 48.7124 152.626 48.73C152.32 48.7687 152.04 48.8339 151.787 48.9254C151.537 49.0169 151.336 49.1489 151.185 49.3214C151.037 49.4903 150.963 49.7156 150.963 49.9972C150.963 50.3879 151.108 50.6835 151.396 50.8842C151.685 51.0813 152.053 51.1798 152.5 51.1798ZM158.261 52.2675V44.1578H159.787V45.446H159.872C160.019 45.0096 160.28 44.6664 160.653 44.4165C161.03 44.163 161.456 44.0363 161.931 44.0363C162.029 44.0363 162.145 44.0398 162.279 44.0469C162.416 44.0539 162.524 44.0627 162.601 44.0733V45.5833C162.538 45.5657 162.425 45.5463 162.263 45.5252C162.101 45.5006 161.939 45.4883 161.778 45.4883C161.404 45.4883 161.072 45.5675 160.78 45.7258C160.491 45.8807 160.262 46.0972 160.093 46.3753C159.924 46.6498 159.84 46.9631 159.84 47.3151V52.2675H158.261ZM166.713 52.4259C166.058 52.4259 165.474 52.2587 164.96 51.9243C164.45 51.5864 164.048 51.1059 163.756 50.4829C163.468 49.8564 163.323 49.1049 163.323 48.2285C163.323 47.352 163.469 46.6023 163.761 45.9793C164.057 45.3563 164.462 44.8793 164.976 44.5485C165.49 44.2176 166.072 44.0522 166.723 44.0522C167.227 44.0522 167.632 44.1366 167.938 44.3056C168.247 44.471 168.487 44.6646 168.656 44.8864C168.828 45.1081 168.962 45.3035 169.057 45.4724H169.152V41.4545H170.731V52.2675H169.189V51.0056H169.057C168.962 51.1781 168.825 51.3752 168.645 51.5969C168.469 51.8187 168.226 52.0123 167.917 52.1777C167.607 52.3431 167.206 52.4259 166.713 52.4259ZM167.061 51.0795C167.515 51.0795 167.899 50.9598 168.212 50.7205C168.529 50.4776 168.768 50.1415 168.93 49.7121C169.096 49.2826 169.178 48.7828 169.178 48.2126C169.178 47.6494 169.098 47.1567 168.936 46.7343C168.774 46.3119 168.536 45.9828 168.223 45.747C167.91 45.5111 167.522 45.3932 167.061 45.3932C166.586 45.3932 166.19 45.5164 165.873 45.7628C165.557 46.0092 165.317 46.3453 165.155 46.7712C164.997 47.1971 164.918 47.6776 164.918 48.2126C164.918 48.7547 164.999 49.2422 165.161 49.6751C165.322 50.108 165.562 50.4512 165.879 50.7047C166.199 50.9546 166.593 51.0795 167.061 51.0795ZM179.061 46.1377L177.63 46.3911C177.57 46.2081 177.475 46.0338 177.345 45.8684C177.218 45.703 177.046 45.5675 176.828 45.4619C176.609 45.3563 176.337 45.3035 176.009 45.3035C175.562 45.3035 175.189 45.4038 174.89 45.6044C174.591 45.8015 174.441 46.0567 174.441 46.37C174.441 46.641 174.541 46.8592 174.742 47.0247C174.943 47.1901 175.266 47.3256 175.714 47.4312L177.002 47.7269C177.748 47.8993 178.304 48.1651 178.67 48.5241C179.036 48.8831 179.219 49.3495 179.219 49.9233C179.219 50.409 179.078 50.8419 178.797 51.2221C178.519 51.5987 178.13 51.8944 177.63 52.1091C177.134 52.3238 176.558 52.4311 175.904 52.4311C174.995 52.4311 174.255 52.2376 173.681 51.8504C173.107 51.4597 172.755 50.9053 172.625 50.1872L174.151 49.9549C174.246 50.3527 174.441 50.6536 174.737 50.8578C175.032 51.0584 175.418 51.1587 175.893 51.1587C176.41 51.1587 176.824 51.0514 177.134 50.8367C177.444 50.6184 177.598 50.3527 177.598 50.0394C177.598 49.786 177.503 49.573 177.313 49.4006C177.127 49.2281 176.84 49.0979 176.453 49.0099L175.08 48.7089C174.323 48.5364 173.764 48.2619 173.401 47.8853C173.042 47.5086 172.862 47.0317 172.862 46.4545C172.862 45.9758 172.996 45.5569 173.264 45.1979C173.531 44.8388 173.901 44.559 174.372 44.3584C174.844 44.1542 175.384 44.0522 175.993 44.0522C176.87 44.0522 177.56 44.2422 178.063 44.6224C178.566 44.999 178.899 45.5041 179.061 46.1377Z" fill="white" fill-opacity="0.37"/>
<g filter="url(#filter0_b_49_1549)">
<rect x="108.575" y="62.4107" width="117.45" height="22.4537" rx="11.2269" fill="white" fill-opacity="0.09"/>
</g>
<path d="M120.502 69.1453H123.061L125.232 74.439H125.332L127.503 69.1453H130.062V77.6954H128.05V72.4435H127.979L125.925 77.6412H124.639L122.585 72.4142H122.514V77.6954H120.502V69.1453ZM139.421 73.4204C139.421 74.3611 139.24 75.1585 138.878 75.8126C138.516 76.4666 138.027 76.9634 137.409 77.303C136.794 77.6426 136.103 77.8123 135.338 77.8123C134.57 77.8123 133.878 77.6412 133.263 77.2988C132.648 76.9565 132.16 76.4597 131.798 75.8084C131.439 75.1543 131.259 74.3583 131.259 73.4204C131.259 72.4796 131.439 71.6822 131.798 71.0282C132.16 70.3741 132.648 69.8773 133.263 69.5378C133.878 69.1982 134.57 69.0284 135.338 69.0284C136.103 69.0284 136.794 69.1982 137.409 69.5378C138.027 69.8773 138.516 70.3741 138.878 71.0282C139.24 71.6822 139.421 72.4796 139.421 73.4204ZM137.309 73.4204C137.309 72.8637 137.229 72.3934 137.071 72.0093C136.915 71.6252 136.689 71.3343 136.394 71.1367C136.102 70.9391 135.75 70.8403 135.338 70.8403C134.929 70.8403 134.577 70.9391 134.282 71.1367C133.987 71.3343 133.76 71.6252 133.601 72.0093C133.445 72.3934 133.367 72.8637 133.367 73.4204C133.367 73.977 133.445 74.4474 133.601 74.8315C133.76 75.2156 133.987 75.5064 134.282 75.704C134.577 75.9016 134.929 76.0004 135.338 76.0004C135.75 76.0004 136.102 75.9016 136.394 75.704C136.689 75.5064 136.915 75.2156 137.071 74.8315C137.229 74.4474 137.309 73.977 137.309 73.4204ZM145.249 71.7087C145.221 71.4025 145.097 71.1646 144.878 70.9948C144.66 70.8222 144.35 70.7359 143.947 70.7359C143.679 70.7359 143.457 70.7707 143.279 70.8403C143.1 70.9099 142.967 71.0059 142.878 71.1284C142.789 71.2481 142.743 71.3858 142.74 71.5417C142.734 71.6697 142.759 71.7824 142.815 71.8799C142.874 71.9773 142.957 72.0636 143.066 72.1387C143.177 72.2111 143.311 72.2751 143.466 72.3307C143.622 72.3864 143.798 72.4351 143.992 72.4769L144.727 72.6439C145.15 72.7357 145.523 72.8582 145.846 73.0112C146.172 73.1643 146.445 73.3466 146.664 73.5582C146.887 73.7697 147.055 74.0132 147.17 74.2888C147.284 74.5643 147.342 74.8732 147.345 75.2156C147.342 75.7555 147.206 76.2189 146.936 76.6058C146.666 76.9927 146.278 77.2891 145.771 77.495C145.267 77.701 144.659 77.804 143.947 77.804C143.231 77.804 142.608 77.6968 142.076 77.4825C141.545 77.2682 141.131 76.9426 140.836 76.5056C140.541 76.0686 140.39 75.5162 140.381 74.8482H142.36C142.377 75.1237 142.451 75.3533 142.581 75.537C142.712 75.7207 142.892 75.8599 143.12 75.9545C143.351 76.0491 143.618 76.0965 143.921 76.0965C144.2 76.0965 144.436 76.0589 144.631 75.9837C144.829 75.9086 144.981 75.8042 145.086 75.6706C145.192 75.537 145.246 75.384 145.249 75.2114C145.246 75.05 145.196 74.9122 145.099 74.7981C145.001 74.6812 144.851 74.581 144.648 74.4975C144.448 74.4112 144.191 74.3319 143.88 74.2595L142.986 74.0508C142.246 73.881 141.663 73.6069 141.237 73.2283C140.811 72.847 140.6 72.3321 140.602 71.6836C140.6 71.1548 140.742 70.6914 141.028 70.2934C141.315 69.8954 141.712 69.5851 142.218 69.3624C142.725 69.1398 143.302 69.0284 143.951 69.0284C144.613 69.0284 145.188 69.1412 145.675 69.3666C146.165 69.5893 146.545 69.9024 146.815 70.3059C147.085 70.7095 147.222 71.1771 147.228 71.7087H145.249ZM148.109 70.8236V69.1453H155.336V70.8236H152.743V77.6954H150.706V70.8236H148.109ZM158.871 77.6954V69.1453H162.403C163.043 69.1453 163.595 69.2706 164.06 69.5211C164.528 69.7688 164.888 70.1153 165.141 70.5606C165.395 71.0031 165.521 71.518 165.521 72.1053C165.521 72.6953 165.392 73.2116 165.133 73.6542C164.877 74.0939 164.511 74.4349 164.035 74.677C163.559 74.9192 162.994 75.0402 162.34 75.0402H160.161V73.412H161.956C162.268 73.412 162.528 73.3578 162.737 73.2492C162.948 73.1407 163.108 72.989 163.217 72.7942C163.325 72.5965 163.379 72.3669 163.379 72.1053C163.379 71.8409 163.325 71.6127 163.217 71.4206C163.108 71.2258 162.948 71.0755 162.737 70.9697C162.525 70.864 162.265 70.8111 161.956 70.8111H160.937V77.6954H158.871ZM174.61 73.4204C174.61 74.3611 174.429 75.1585 174.067 75.8126C173.705 76.4666 173.215 76.9634 172.598 77.303C171.982 77.6426 171.292 77.8123 170.527 77.8123C169.759 77.8123 169.067 77.6412 168.452 77.2988C167.837 76.9565 167.348 76.4597 166.987 75.8084C166.628 75.1543 166.448 74.3583 166.448 73.4204C166.448 72.4796 166.628 71.6822 166.987 71.0282C167.348 70.3741 167.837 69.8773 168.452 69.5378C169.067 69.1982 169.759 69.0284 170.527 69.0284C171.292 69.0284 171.982 69.1982 172.598 69.5378C173.215 69.8773 173.705 70.3741 174.067 71.0282C174.429 71.6822 174.61 72.4796 174.61 73.4204ZM172.497 73.4204C172.497 72.8637 172.418 72.3934 172.259 72.0093C172.104 71.6252 171.878 71.3343 171.583 71.1367C171.291 70.9391 170.939 70.8403 170.527 70.8403C170.118 70.8403 169.766 70.9391 169.471 71.1367C169.176 71.3343 168.949 71.6252 168.79 72.0093C168.634 72.3934 168.556 72.8637 168.556 73.4204C168.556 73.977 168.634 74.4474 168.79 74.8315C168.949 75.2156 169.176 75.5064 169.471 75.704C169.766 75.9016 170.118 76.0004 170.527 76.0004C170.939 76.0004 171.291 75.9016 171.583 75.704C171.878 75.5064 172.104 75.2156 172.259 74.8315C172.418 74.4474 172.497 73.977 172.497 73.4204ZM175.816 77.6954V69.1453H179.348C179.988 69.1453 180.541 69.2706 181.006 69.5211C181.473 69.7688 181.834 70.1153 182.087 70.5606C182.34 71.0031 182.467 71.518 182.467 72.1053C182.467 72.6953 182.337 73.2116 182.079 73.6542C181.823 74.0939 181.457 74.4349 180.981 74.677C180.505 74.9192 179.94 75.0402 179.286 75.0402H177.106V73.412H178.902C179.213 73.412 179.474 73.3578 179.682 73.2492C179.894 73.1407 180.054 72.989 180.162 72.7942C180.271 72.5965 180.325 72.3669 180.325 72.1053C180.325 71.8409 180.271 71.6127 180.162 71.4206C180.054 71.2258 179.894 71.0755 179.682 70.9697C179.471 70.864 179.211 70.8111 178.902 70.8111H177.883V77.6954H175.816ZM188.658 69.1453H190.721V74.6603C190.721 75.2977 190.569 75.8529 190.266 76.3261C189.962 76.7964 189.539 77.1611 188.996 77.4199C188.454 77.676 187.823 77.804 187.105 77.804C186.379 77.804 185.744 77.676 185.201 77.4199C184.659 77.1611 184.237 76.7964 183.936 76.3261C183.636 75.8529 183.486 75.2977 183.486 74.6603V69.1453H185.552V74.4808C185.552 74.7758 185.616 75.0388 185.744 75.2698C185.875 75.5009 186.057 75.6818 186.291 75.8126C186.525 75.9434 186.796 76.0088 187.105 76.0088C187.414 76.0088 187.684 75.9434 187.915 75.8126C188.149 75.6818 188.331 75.5009 188.462 75.2698C188.593 75.0388 188.658 74.7758 188.658 74.4808V69.1453ZM192.016 77.6954V69.1453H194.082V76.0171H197.639V77.6954H192.016ZM200.673 77.6954H198.452L201.337 69.1453H204.088L206.973 77.6954H204.752L202.744 71.2996H202.677L200.673 77.6954ZM200.377 74.3305H205.019V75.9002H200.377V74.3305ZM207.894 77.6954V69.1453H211.426C212.066 69.1453 212.618 69.2608 213.083 69.4918C213.551 69.7201 213.911 70.0485 214.165 70.4771C214.418 70.9029 214.544 71.4081 214.544 71.9926C214.544 72.5854 214.415 73.0892 214.156 73.5039C213.897 73.9158 213.53 74.2303 213.054 74.4474C212.578 74.6617 212.014 74.7689 211.363 74.7689H209.13V73.1407H210.979C211.291 73.1407 211.551 73.1003 211.76 73.0196C211.971 72.9361 212.131 72.8109 212.24 72.6439C212.348 72.4741 212.403 72.257 212.403 71.9926C212.403 71.7282 212.348 71.5097 212.24 71.3371C212.131 71.1618 211.971 71.031 211.76 70.9447C211.548 70.8556 211.288 70.8111 210.979 70.8111H209.96V77.6954H207.894ZM212.707 73.7878L214.837 77.6954H212.582L210.495 73.7878H212.707Z" fill="white"/>
<circle cx="315.29" cy="48.2612" r="14.1865" fill="url(#paint1_linear_49_1549)"/>
<path d="M321.135 44.5176C321.206 44.588 321.262 44.6717 321.3 44.7638C321.338 44.8559 321.358 44.9547 321.358 45.0544C321.358 45.1542 321.338 45.253 321.3 45.3451C321.262 45.4372 321.206 45.5209 321.135 45.5913L314.31 52.4161C314.24 52.4867 314.156 52.5427 314.064 52.581C313.972 52.6192 313.873 52.6389 313.773 52.6389C313.674 52.6389 313.575 52.6192 313.483 52.581C313.391 52.5427 313.307 52.4867 313.237 52.4161L310.203 49.3829C310.061 49.2405 309.981 49.0473 309.981 48.846C309.981 48.6446 310.061 48.4515 310.203 48.3091C310.346 48.1667 310.539 48.0867 310.74 48.0867C310.942 48.0867 311.135 48.1667 311.277 48.3091L313.773 50.807L320.061 44.5176C320.132 44.4469 320.215 44.3909 320.308 44.3527C320.4 44.3145 320.498 44.2948 320.598 44.2948C320.698 44.2948 320.797 44.3145 320.889 44.3527C320.981 44.3909 321.065 44.4469 321.135 44.5176Z" fill="white"/>
<circle cx="260.062" cy="48.2612" r="14.1865" fill="white" fill-opacity="0.12"/>
<path d="M260.055 45.7626C259.241 45.7626 258.56 45.0813 258.56 44.267C258.56 43.4526 259.241 42.7713 260.055 42.7713C260.87 42.7713 261.551 43.4526 261.551 44.267C261.551 45.0813 260.87 45.7626 260.055 45.7626ZM258.809 54.8032V46.4939H261.302V54.8032H258.809Z" fill="white" fill-opacity="0.36"/>
<defs>
<filter id="filter0_b_49_1549" x="91.6959" y="45.5319" width="151.208" height="56.2114" filterUnits="userSpaceOnUse" color-interpolation-filters="sRGB">
<feFlood flood-opacity="0" result="BackgroundImageFix"/>
<feGaussianBlur in="BackgroundImageFix" stdDeviation="8.43941"/>
<feComposite in2="SourceAlpha" operator="in" result="effect1_backgroundBlur_49_1549"/>
<feBlend mode="normal" in="SourceGraphic" in2="effect1_backgroundBlur_49_1549" result="shape"/>
</filter>
<linearGradient id="paint0_linear_49_1549" x1="81.7438" y1="3.09035" x2="97.3958" y2="122.773" gradientUnits="userSpaceOnUse">
<stop offset="0.671099" stop-color="#1B1C37"/>
<stop offset="1" stop-color="#2B2D5D"/>
</linearGradient>
<linearGradient id="paint1_linear_49_1549" x1="307.58" y1="36.0514" x2="322.351" y2="59.8597" gradientUnits="userSpaceOnUse">
<stop stop-color="#17A88F"/>
<stop offset="1" stop-color="#0B8C75"/>
</linearGradient>
<clipPath id="clip0_49_1549">
<rect width="59.5752" height="56.6152" fill="white" transform="translate(25.2197 19.9536)"/>
</clipPath>
</defs>
</svg>
