<svg width="334" height="287" viewBox="0 0 334 287" fill="none" xmlns="http://www.w3.org/2000/svg">
<g opacity="0.88">
<rect x="0.842773" y="0.881195" width="332.314" height="88.9736" rx="25.0432" fill="url(#paint0_linear_84_823)"/>
<path d="M104.914 42.7242L101.073 29.524H104.598L106.59 38.1738H106.7L108.975 29.524H111.85L114.125 38.1931H114.234L116.232 29.524H119.752L115.917 42.7242H112.842L110.464 34.719H110.361L107.982 42.7242H104.914ZM121.07 42.7242V32.8241H124.222V42.7242H121.07ZM122.649 31.6703C122.206 31.6703 121.826 31.5242 121.508 31.232C121.19 30.9355 121.031 30.5789 121.031 30.1621C121.031 29.7496 121.19 29.3972 121.508 29.105C121.826 28.8086 122.206 28.6603 122.649 28.6603C123.096 28.6603 123.476 28.8086 123.79 29.105C124.108 29.3972 124.267 29.7496 124.267 30.1621C124.267 30.5789 124.108 30.9355 123.79 31.232C123.476 31.5242 123.096 31.6703 122.649 31.6703ZM129.379 29.524V42.7242H126.228V29.524H129.379ZM135.001 42.866C134.271 42.866 133.607 42.677 133.01 42.2988C132.413 41.9207 131.936 41.3535 131.579 40.5972C131.222 39.841 131.044 38.9021 131.044 37.7806C131.044 36.6161 131.229 35.6579 131.598 34.9059C131.968 34.154 132.451 33.5975 133.049 33.2366C133.65 32.8756 134.297 32.6952 134.989 32.6952C135.509 32.6952 135.953 32.7854 136.323 32.9659C136.692 33.142 136.997 33.3698 137.238 33.6491C137.479 33.9284 137.661 34.2184 137.786 34.5192H137.85V29.524H141.002V42.7242H137.883V41.1193H137.786C137.653 41.4244 137.464 41.7102 137.219 41.9766C136.974 42.243 136.667 42.4578 136.297 42.6211C135.932 42.7844 135.5 42.866 135.001 42.866ZM136.097 40.4103C136.48 40.4103 136.806 40.3029 137.077 40.0881C137.348 39.8689 137.556 39.5617 137.702 39.1664C137.848 38.771 137.921 38.307 137.921 37.7741C137.921 37.2327 137.848 36.7665 137.702 36.3755C137.56 35.9845 137.352 35.6837 137.077 35.4731C136.806 35.2626 136.48 35.1573 136.097 35.1573C135.706 35.1573 135.375 35.2647 135.105 35.4796C134.834 35.6944 134.628 35.9974 134.486 36.3884C134.348 36.7794 134.28 37.2413 134.28 37.7741C134.28 38.307 134.351 38.771 134.492 39.1664C134.634 39.5617 134.838 39.8689 135.105 40.0881C135.375 40.3029 135.706 40.4103 136.097 40.4103Z" fill="white"/>
<path d="M101.715 63.2664V62.1695L105.109 58.6533C105.471 58.2714 105.77 57.9367 106.005 57.6494C106.243 57.3589 106.421 57.083 106.539 56.8218C106.656 56.5606 106.715 56.2831 106.715 55.9893C106.715 55.6563 106.637 55.369 106.48 55.1274C106.323 54.8826 106.11 54.6948 105.839 54.5642C105.568 54.4304 105.262 54.3635 104.923 54.3635C104.564 54.3635 104.25 54.4369 103.983 54.5838C103.715 54.7307 103.509 54.9381 103.366 55.2058C103.222 55.4735 103.15 55.7869 103.15 56.146H101.705C101.705 55.5355 101.846 55.0017 102.127 54.5447C102.407 54.0876 102.793 53.7334 103.282 53.482C103.772 53.2273 104.329 53.1 104.952 53.1C105.582 53.1 106.137 53.2257 106.617 53.4771C107.1 53.7252 107.478 54.0647 107.748 54.4957C108.019 54.9234 108.155 55.4066 108.155 55.9452C108.155 56.3174 108.085 56.6814 107.944 57.0373C107.807 57.3931 107.567 57.7898 107.224 58.2273C106.882 58.6615 106.405 59.1888 105.795 59.8091L103.801 61.8952V61.9687H108.317V63.2664H101.715ZM113.978 53.2371V63.2664H112.46V54.7552H112.401L110.001 56.3223V54.8728L112.504 53.2371H113.978ZM120.079 63.4035C119.378 63.4035 118.757 63.2828 118.219 63.0412C117.683 62.7996 117.264 62.4666 116.96 62.0421C116.656 61.6177 116.506 61.1345 116.509 60.5926C116.506 60.1682 116.593 59.778 116.769 59.4222C116.949 59.0631 117.192 58.7643 117.499 58.526C117.806 58.2844 118.148 58.131 118.527 58.0657V58.0069C118.028 57.8861 117.628 57.6184 117.327 57.2038C117.027 56.7892 116.878 56.3125 116.882 55.7738C116.878 55.2613 117.014 54.8042 117.288 54.4026C117.566 53.9978 117.946 53.6795 118.429 53.4477C118.912 53.2159 119.462 53.1 120.079 53.1C120.69 53.1 121.235 53.2175 121.715 53.4526C122.198 53.6844 122.579 54.0027 122.856 54.4075C123.134 54.8091 123.274 55.2645 123.277 55.7738C123.274 56.3125 123.121 56.7892 122.817 57.2038C122.513 57.6184 122.118 57.8861 121.632 58.0069V58.0657C122.007 58.131 122.345 58.2844 122.646 58.526C122.949 58.7643 123.191 59.0631 123.37 59.4222C123.553 59.778 123.646 60.1682 123.649 60.5926C123.646 61.1345 123.493 61.6177 123.189 62.0421C122.885 62.4666 122.464 62.7996 121.926 63.0412C121.39 63.2828 120.775 63.4035 120.079 63.4035ZM120.079 62.1646C120.494 62.1646 120.853 62.096 121.157 61.9589C121.46 61.8185 121.695 61.6243 121.862 61.3761C122.028 61.1248 122.113 60.8309 122.117 60.4947C122.113 60.1453 122.022 59.8368 121.842 59.5691C121.666 59.3014 121.426 59.0908 121.123 58.9374C120.819 58.7839 120.471 58.7072 120.079 58.7072C119.684 58.7072 119.333 58.7839 119.027 58.9374C118.72 59.0908 118.478 59.3014 118.302 59.5691C118.125 59.8368 118.039 60.1453 118.042 60.4947C118.039 60.8309 118.119 61.1248 118.282 61.3761C118.449 61.6243 118.685 61.8185 118.992 61.9589C119.299 62.096 119.662 62.1646 120.079 62.1646ZM120.079 57.4976C120.412 57.4976 120.708 57.4307 120.966 57.2968C121.224 57.163 121.426 56.9769 121.573 56.7386C121.723 56.5002 121.8 56.2211 121.803 55.9012C121.8 55.5877 121.725 55.3135 121.578 55.0784C121.434 54.8434 121.234 54.6622 120.976 54.5349C120.718 54.4043 120.419 54.339 120.079 54.339C119.733 54.339 119.43 54.4043 119.169 54.5349C118.911 54.6622 118.71 54.8434 118.566 55.0784C118.423 55.3135 118.352 55.5877 118.356 55.9012C118.352 56.2211 118.424 56.5002 118.571 56.7386C118.718 56.9769 118.92 57.163 119.178 57.2968C119.44 57.4307 119.74 57.4976 120.079 57.4976ZM132.241 63.4182C131.513 63.4182 130.887 63.2534 130.361 62.9236C129.839 62.5906 129.437 62.1319 129.156 61.5475C128.875 60.9632 128.735 60.2939 128.735 59.5397C128.735 58.7758 128.879 58.1016 129.166 57.5172C129.453 56.9296 129.858 56.4709 130.381 56.1411C130.903 55.8114 131.518 55.6465 132.227 55.6465C132.798 55.6465 133.307 55.7526 133.755 55.9648C134.202 56.1738 134.563 56.4676 134.837 56.8463C135.114 57.225 135.279 57.6674 135.332 58.1734H133.906C133.828 57.8208 133.649 57.5172 133.368 57.2626C133.09 57.0079 132.718 56.8806 132.251 56.8806C131.843 56.8806 131.486 56.9883 131.179 57.2038C130.875 57.416 130.638 57.7196 130.469 58.1147C130.299 58.5064 130.214 58.97 130.214 59.5054C130.214 60.0539 130.297 60.5273 130.464 60.9256C130.63 61.3239 130.865 61.6324 131.169 61.8512C131.476 62.0699 131.837 62.1793 132.251 62.1793C132.529 62.1793 132.78 62.1287 133.005 62.0275C133.234 61.923 133.425 61.7744 133.578 61.5818C133.735 61.3892 133.844 61.1574 133.906 60.8864H135.332C135.279 61.3729 135.121 61.8071 134.856 62.1891C134.592 62.571 134.238 62.8714 133.794 63.0901C133.353 63.3089 132.836 63.4182 132.241 63.4182ZM139.086 63.4329C138.61 63.4329 138.179 63.3448 137.794 63.1685C137.408 62.9889 137.103 62.7294 136.878 62.3898C136.656 62.0503 136.545 61.6341 136.545 61.1411C136.545 60.7167 136.626 60.3673 136.79 60.0931C136.953 59.8189 137.173 59.6018 137.451 59.4418C137.728 59.2818 138.038 59.161 138.381 59.0794C138.724 58.9978 139.073 58.9357 139.429 58.8933C139.88 58.8411 140.245 58.7986 140.526 58.766C140.807 58.7301 141.011 58.6729 141.138 58.5946C141.266 58.5162 141.329 58.3889 141.329 58.2126V58.1783C141.329 57.7506 141.208 57.4193 140.967 57.1842C140.729 56.9491 140.373 56.8316 139.899 56.8316C139.406 56.8316 139.018 56.941 138.734 57.1597C138.453 57.3752 138.259 57.6152 138.151 57.8796L136.775 57.5662C136.938 57.1091 137.177 56.7402 137.49 56.4594C137.807 56.1754 138.171 55.9697 138.582 55.8424C138.993 55.7118 139.426 55.6465 139.88 55.6465C140.18 55.6465 140.498 55.6824 140.835 55.7542C141.174 55.8228 141.491 55.9501 141.785 56.1362C142.082 56.3223 142.325 56.5884 142.514 56.9345C142.704 57.2773 142.798 57.7229 142.798 58.2714V63.2664H141.368V62.238H141.31C141.215 62.4274 141.073 62.6135 140.884 62.7963C140.694 62.9791 140.451 63.1309 140.154 63.2517C139.857 63.3725 139.501 63.4329 139.086 63.4329ZM139.405 62.2576C139.81 62.2576 140.156 62.1776 140.443 62.0177C140.733 61.8577 140.954 61.6487 141.104 61.3908C141.257 61.1297 141.334 60.8505 141.334 60.5534V59.5838C141.282 59.636 141.181 59.685 141.031 59.7307C140.884 59.7731 140.715 59.8107 140.526 59.8433C140.337 59.8727 140.152 59.9005 139.973 59.9266C139.793 59.9494 139.643 59.969 139.522 59.9854C139.238 60.0213 138.979 60.0817 138.744 60.1666C138.512 60.2514 138.326 60.3739 138.185 60.5338C138.048 60.6905 137.98 60.8995 137.98 61.1607C137.98 61.5231 138.113 61.7973 138.381 61.9834C138.649 62.1662 138.99 62.2576 139.405 62.2576ZM144.749 63.2664V55.7445H146.164V56.9393H146.242C146.379 56.5345 146.621 56.2162 146.967 55.9844C147.316 55.7493 147.711 55.6318 148.152 55.6318C148.244 55.6318 148.351 55.6351 148.475 55.6416C148.603 55.6481 148.702 55.6563 148.774 55.6661V57.0667C148.715 57.0504 148.611 57.0324 148.461 57.0128C148.311 56.99 148.16 56.9785 148.01 56.9785C147.664 56.9785 147.356 57.052 147.085 57.1989C146.817 57.3425 146.605 57.5433 146.448 57.8012C146.291 58.0559 146.213 58.3465 146.213 58.6729V63.2664H144.749ZM152.588 63.4133C151.98 63.4133 151.439 63.2583 150.962 62.9481C150.489 62.6347 150.116 62.1891 149.845 61.6112C149.578 61.0301 149.444 60.3331 149.444 59.5201C149.444 58.7072 149.579 58.0118 149.85 57.434C150.124 56.8561 150.5 56.4137 150.977 56.1068C151.453 55.8 151.994 55.6465 152.598 55.6465C153.064 55.6465 153.44 55.7249 153.724 55.8816C154.011 56.035 154.233 56.2146 154.39 56.4203C154.55 56.6259 154.674 56.8071 154.762 56.9638H154.85V53.2371H156.314V63.2664H154.884V62.096H154.762C154.674 62.256 154.547 62.4388 154.38 62.6445C154.217 62.8502 153.992 63.0297 153.704 63.1832C153.417 63.3366 153.045 63.4133 152.588 63.4133ZM152.911 62.1646C153.332 62.1646 153.688 62.0536 153.979 61.8316C154.272 61.6063 154.494 61.2945 154.645 60.8962C154.798 60.4979 154.875 60.0343 154.875 59.5054C154.875 58.9831 154.8 58.526 154.649 58.1342C154.499 57.7425 154.279 57.4372 153.988 57.2185C153.698 56.9997 153.339 56.8904 152.911 56.8904C152.47 56.8904 152.103 57.0046 151.809 57.2332C151.515 57.4617 151.293 57.7735 151.143 58.1685C150.996 58.5636 150.923 59.0092 150.923 59.5054C150.923 60.0082 150.998 60.4604 151.148 60.8619C151.298 61.2635 151.52 61.5818 151.814 61.8169C152.111 62.0487 152.477 62.1646 152.911 62.1646ZM164.041 57.5809L162.714 57.8159C162.658 57.6462 162.57 57.4846 162.449 57.3311C162.332 57.1777 162.172 57.052 161.969 56.954C161.767 56.8561 161.514 56.8071 161.21 56.8071C160.796 56.8071 160.45 56.9002 160.172 57.0863C159.895 57.2691 159.756 57.5058 159.756 57.7963C159.756 58.0477 159.849 58.2501 160.035 58.4036C160.221 58.557 160.521 58.6827 160.936 58.7807L162.131 59.0549C162.823 59.2149 163.339 59.4614 163.678 59.7944C164.018 60.1274 164.188 60.56 164.188 61.0921C164.188 61.5426 164.057 61.9442 163.796 62.2968C163.538 62.6461 163.177 62.9204 162.714 63.1195C162.253 63.3187 161.72 63.4182 161.112 63.4182C160.27 63.4182 159.583 63.2387 159.051 62.8796C158.519 62.5172 158.192 62.003 158.071 61.337L159.487 61.1215C159.575 61.4904 159.756 61.7695 160.03 61.9589C160.304 62.145 160.662 62.238 161.103 62.238C161.583 62.238 161.966 62.1385 162.253 61.9393C162.541 61.7369 162.684 61.4904 162.684 61.1998C162.684 60.9648 162.596 60.7673 162.42 60.6073C162.247 60.4473 161.981 60.3265 161.622 60.2449L160.348 59.9658C159.647 59.8058 159.127 59.5511 158.791 59.2018C158.458 58.8525 158.292 58.4101 158.292 57.8747C158.292 57.4307 158.416 57.0422 158.664 56.7092C158.912 56.3762 159.255 56.1166 159.692 55.9305C160.13 55.7412 160.631 55.6465 161.196 55.6465C162.009 55.6465 162.648 55.8228 163.115 56.1754C163.582 56.5247 163.891 56.9932 164.041 57.5809Z" fill="white" fill-opacity="0.37"/>
<circle cx="292.484" cy="45.368" r="13.1584" fill="white" fill-opacity="0.12"/>
<circle cx="241.259" cy="45.3677" r="13.1584" fill="white" fill-opacity="0.12"/>
<path d="M241.253 43.2098C240.498 43.2098 239.866 42.5778 239.866 41.8225C239.866 41.0672 240.498 40.4352 241.253 40.4352C242.009 40.4352 242.641 41.0672 242.641 41.8225C242.641 42.5778 242.009 43.2098 241.253 43.2098ZM240.097 51.5952V43.888H242.409V51.5952H240.097Z" fill="white" fill-opacity="0.36"/>
<g clip-path="url(#clip0_84_823)">
<path d="M47.6196 67.187C57.601 68.4599 66.5827 62.0699 67.8353 52.9347C68.6658 46.8781 63.6828 43.1612 59.3173 38.981C57.7919 36.7649 57.0059 33.645 58.4711 28.3516C57.0323 28.2621 55.2968 29.0117 53.529 30.4037C52.825 27.3841 53.3569 23.7715 56.0669 19.1559C48.6446 18.2094 30.9015 32.6981 31.6895 48.3241C32.1534 57.5286 37.6382 65.9138 47.6196 67.187ZM51.7473 38.3637C46.8961 49.3887 60.6068 49.0671 60.4631 56.3093C60.3812 60.4207 57.4471 63.8837 53.4038 65.0813C53.9526 64.3726 54.2976 63.4937 54.3424 62.5299C54.5817 57.3995 48.0717 57.2598 49.0525 53.3938C47.0971 54.7403 45.1546 58.1457 45.4136 62.1381C45.4737 63.0625 45.7391 63.9353 46.1762 64.6709C42.8621 63.1658 40.7507 59.8563 40.1215 56.1214C38.6715 47.5149 47.5704 38.3254 51.7473 38.3637Z" fill="#FF8B42"/>
</g>
<rect x="0.842773" y="99.1301" width="332.314" height="88.9736" rx="25.0432" fill="url(#paint1_linear_84_823)"/>
<path d="M108.885 131.73C108.842 131.258 108.65 130.89 108.311 130.628C107.976 130.362 107.497 130.229 106.874 130.229C106.461 130.229 106.117 130.282 105.842 130.39C105.567 130.497 105.361 130.645 105.224 130.834C105.086 131.019 105.015 131.232 105.011 131.473C105.002 131.67 105.041 131.844 105.127 131.995C105.217 132.145 105.346 132.278 105.514 132.394C105.686 132.506 105.892 132.605 106.132 132.691C106.373 132.777 106.644 132.852 106.945 132.916L108.079 133.174C108.732 133.316 109.308 133.505 109.806 133.741C110.309 133.978 110.73 134.259 111.07 134.586C111.413 134.912 111.673 135.288 111.85 135.714C112.026 136.139 112.116 136.616 112.12 137.145C112.116 137.978 111.905 138.694 111.489 139.291C111.072 139.888 110.472 140.346 109.69 140.664C108.913 140.982 107.974 141.141 106.874 141.141C105.769 141.141 104.807 140.975 103.986 140.644C103.165 140.314 102.527 139.811 102.072 139.136C101.616 138.462 101.382 137.609 101.369 136.577H104.424C104.45 137.003 104.564 137.357 104.766 137.641C104.968 137.924 105.245 138.139 105.597 138.285C105.954 138.431 106.367 138.505 106.835 138.505C107.265 138.505 107.63 138.447 107.931 138.331C108.236 138.214 108.47 138.053 108.633 137.847C108.797 137.641 108.88 137.405 108.885 137.138C108.88 136.889 108.803 136.676 108.653 136.5C108.502 136.32 108.27 136.165 107.956 136.036C107.647 135.903 107.252 135.78 106.771 135.669L105.391 135.346C104.248 135.084 103.348 134.661 102.691 134.077C102.033 133.488 101.707 132.693 101.711 131.692C101.707 130.875 101.926 130.16 102.368 129.545C102.811 128.931 103.423 128.452 104.205 128.108C104.987 127.764 105.879 127.592 106.88 127.592C107.903 127.592 108.79 127.766 109.542 128.114C110.298 128.458 110.885 128.942 111.302 129.565C111.718 130.188 111.931 130.91 111.94 131.73H108.885ZM118.359 141.16C117.324 141.16 116.43 140.956 115.678 140.548C114.93 140.135 114.355 139.549 113.951 138.788C113.551 138.023 113.351 137.114 113.351 136.062C113.351 135.039 113.553 134.145 113.957 133.38C114.361 132.611 114.93 132.014 115.665 131.589C116.4 131.159 117.266 130.944 118.263 130.944C118.967 130.944 119.612 131.054 120.196 131.273C120.781 131.492 121.286 131.816 121.711 132.246C122.136 132.676 122.467 133.206 122.704 133.838C122.94 134.465 123.058 135.185 123.058 135.997V136.784H114.453V134.953H120.125C120.121 134.618 120.042 134.319 119.887 134.057C119.732 133.795 119.52 133.591 119.249 133.445C118.982 133.294 118.675 133.219 118.327 133.219C117.975 133.219 117.659 133.299 117.38 133.458C117.1 133.612 116.879 133.825 116.716 134.096C116.553 134.362 116.467 134.665 116.458 135.005V136.867C116.458 137.271 116.537 137.626 116.696 137.931C116.855 138.232 117.081 138.466 117.373 138.633C117.665 138.801 118.013 138.885 118.417 138.885C118.697 138.885 118.95 138.846 119.178 138.769C119.406 138.691 119.601 138.578 119.765 138.427C119.928 138.277 120.05 138.092 120.132 137.873L123.026 137.957C122.906 138.606 122.641 139.171 122.233 139.652C121.829 140.129 121.299 140.5 120.641 140.767C119.984 141.029 119.223 141.16 118.359 141.16ZM127.207 131.073L128.838 134.334L130.527 131.073H133.704L130.939 136.023L133.807 140.973H130.656L128.838 137.686L127.066 140.973H123.869L126.743 136.023L124.01 131.073H127.207ZM137.07 144.686C136.692 144.686 136.336 144.656 136.001 144.595C135.665 144.54 135.377 144.464 135.137 144.37L135.833 142.082C136.142 142.185 136.422 142.245 136.671 142.262C136.924 142.279 137.141 142.239 137.322 142.14C137.507 142.045 137.648 141.875 137.747 141.631L137.87 141.334L134.351 131.073H137.651L139.475 138.137H139.578L141.428 131.073H144.747L141.015 141.921C140.835 142.462 140.579 142.939 140.248 143.351C139.922 143.768 139.498 144.095 138.978 144.331C138.463 144.568 137.827 144.686 137.07 144.686Z" fill="white"/>
<path d="M105.207 161.653C104.534 161.653 103.934 161.537 103.405 161.305C102.879 161.073 102.463 160.751 102.156 160.34C101.852 159.926 101.689 159.446 101.666 158.9H103.204C103.224 159.197 103.323 159.455 103.503 159.674C103.685 159.89 103.924 160.056 104.218 160.174C104.511 160.291 104.838 160.35 105.197 160.35C105.592 160.35 105.941 160.281 106.245 160.144C106.552 160.007 106.792 159.816 106.965 159.571C107.138 159.323 107.224 159.038 107.224 158.714C107.224 158.378 107.138 158.083 106.965 157.828C106.795 157.57 106.545 157.368 106.216 157.221C105.889 157.074 105.494 157 105.031 157H104.183V155.766H105.031C105.403 155.766 105.729 155.699 106.01 155.565C106.294 155.432 106.516 155.245 106.676 155.007C106.836 154.766 106.916 154.483 106.916 154.16C106.916 153.85 106.846 153.58 106.705 153.352C106.568 153.12 106.372 152.939 106.118 152.808C105.866 152.678 105.569 152.612 105.226 152.612C104.9 152.612 104.595 152.673 104.311 152.794C104.03 152.911 103.801 153.081 103.625 153.303C103.449 153.522 103.354 153.785 103.341 154.091H101.877C101.893 153.549 102.053 153.073 102.357 152.661C102.664 152.25 103.068 151.929 103.571 151.697C104.074 151.465 104.632 151.349 105.246 151.349C105.889 151.349 106.444 151.475 106.911 151.726C107.381 151.974 107.744 152.306 107.998 152.72C108.256 153.135 108.383 153.589 108.38 154.082C108.383 154.643 108.227 155.12 107.91 155.512C107.597 155.903 107.179 156.166 106.656 156.3V156.378C107.322 156.48 107.838 156.744 108.204 157.172C108.573 157.599 108.756 158.13 108.752 158.763C108.756 159.315 108.602 159.81 108.292 160.247C107.985 160.685 107.566 161.029 107.033 161.28C106.501 161.529 105.892 161.653 105.207 161.653ZM113.914 161.653C113.3 161.653 112.748 161.535 112.259 161.3C111.772 161.062 111.384 160.735 111.093 160.321C110.803 159.906 110.648 159.433 110.628 158.9H112.097C112.133 159.331 112.324 159.686 112.67 159.963C113.016 160.241 113.431 160.379 113.914 160.379C114.299 160.379 114.64 160.291 114.937 160.115C115.238 159.935 115.473 159.689 115.643 159.375C115.816 159.062 115.902 158.704 115.902 158.303C115.902 157.895 115.814 157.531 115.638 157.211C115.461 156.891 115.218 156.64 114.908 156.457C114.601 156.274 114.249 156.181 113.85 156.178C113.547 156.178 113.241 156.23 112.935 156.334C112.628 156.439 112.38 156.576 112.19 156.746L110.804 156.54L111.367 151.486H116.882V152.784H112.626L112.308 155.59H112.366C112.562 155.401 112.822 155.242 113.145 155.115C113.472 154.988 113.821 154.924 114.193 154.924C114.804 154.924 115.347 155.069 115.824 155.36C116.304 155.65 116.681 156.047 116.955 156.55C117.233 157.049 117.37 157.624 117.366 158.274C117.37 158.923 117.223 159.503 116.926 160.012C116.632 160.521 116.224 160.923 115.701 161.217C115.182 161.507 114.586 161.653 113.914 161.653ZM122.657 161.653C122.209 161.646 121.769 161.564 121.334 161.408C120.903 161.251 120.512 160.99 120.159 160.624C119.806 160.259 119.524 159.767 119.312 159.15C119.103 158.533 118.998 157.763 118.998 156.839C118.998 155.964 119.085 155.187 119.258 154.508C119.434 153.829 119.687 153.256 120.017 152.789C120.347 152.319 120.745 151.961 121.212 151.716C121.679 151.471 122.203 151.349 122.784 151.349C123.381 151.349 123.912 151.467 124.375 151.702C124.839 151.937 125.214 152.262 125.502 152.676C125.792 153.091 125.977 153.563 126.055 154.091H124.562C124.46 153.674 124.26 153.332 123.959 153.068C123.659 152.803 123.267 152.671 122.784 152.671C122.049 152.671 121.476 152.991 121.065 153.631C120.657 154.271 120.451 155.161 120.448 156.3H120.521C120.694 156.016 120.907 155.774 121.158 155.575C121.413 155.373 121.697 155.218 122.01 155.11C122.327 154.999 122.66 154.944 123.009 154.944C123.59 154.944 124.116 155.086 124.586 155.37C125.059 155.65 125.436 156.039 125.717 156.535C125.998 157.031 126.138 157.599 126.138 158.239C126.138 158.879 125.993 159.459 125.703 159.978C125.415 160.497 125.01 160.908 124.488 161.212C123.966 161.512 123.355 161.659 122.657 161.653ZM122.652 160.379C123.037 160.379 123.381 160.285 123.685 160.095C123.989 159.906 124.229 159.651 124.405 159.331C124.581 159.011 124.669 158.654 124.669 158.259C124.669 157.874 124.583 157.523 124.41 157.206C124.24 156.889 124.005 156.638 123.705 156.452C123.407 156.266 123.068 156.173 122.686 156.173C122.395 156.173 122.126 156.228 121.878 156.339C121.633 156.45 121.418 156.604 121.231 156.8C121.045 156.995 120.898 157.221 120.791 157.475C120.686 157.727 120.634 157.993 120.634 158.274C120.634 158.649 120.721 158.997 120.894 159.317C121.07 159.637 121.31 159.894 121.613 160.09C121.92 160.283 122.266 160.379 122.652 160.379ZM134.76 161.667C134.032 161.667 133.405 161.502 132.879 161.173C132.357 160.84 131.955 160.381 131.675 159.797C131.394 159.212 131.253 158.543 131.253 157.789C131.253 157.025 131.397 156.351 131.684 155.766C131.972 155.179 132.377 154.72 132.899 154.39C133.421 154.06 134.037 153.896 134.745 153.896C135.316 153.896 135.826 154.002 136.273 154.214C136.72 154.423 137.081 154.717 137.355 155.095C137.633 155.474 137.798 155.916 137.85 156.422H136.425C136.346 156.07 136.167 155.766 135.886 155.512C135.609 155.257 135.236 155.13 134.77 155.13C134.361 155.13 134.004 155.237 133.697 155.453C133.393 155.665 133.157 155.969 132.987 156.364C132.817 156.755 132.732 157.219 132.732 157.754C132.732 158.303 132.816 158.776 132.982 159.175C133.149 159.573 133.384 159.881 133.687 160.1C133.994 160.319 134.355 160.428 134.77 160.428C135.047 160.428 135.298 160.378 135.524 160.276C135.752 160.172 135.943 160.023 136.097 159.831C136.253 159.638 136.363 159.406 136.425 159.135H137.85C137.798 159.622 137.639 160.056 137.375 160.438C137.11 160.82 136.756 161.12 136.312 161.339C135.871 161.558 135.354 161.667 134.76 161.667ZM141.605 161.682C141.128 161.682 140.697 161.594 140.312 161.418C139.927 161.238 139.621 160.978 139.396 160.639C139.174 160.299 139.063 159.883 139.063 159.39C139.063 158.966 139.145 158.616 139.308 158.342C139.471 158.068 139.692 157.851 139.969 157.691C140.247 157.531 140.557 157.41 140.9 157.328C141.242 157.247 141.592 157.185 141.948 157.142C142.398 157.09 142.764 157.048 143.044 157.015C143.325 156.979 143.529 156.922 143.657 156.844C143.784 156.765 143.848 156.638 143.848 156.462V156.427C143.848 156 143.727 155.668 143.485 155.433C143.247 155.198 142.891 155.081 142.418 155.081C141.925 155.081 141.536 155.19 141.252 155.409C140.971 155.624 140.777 155.864 140.669 156.129L139.293 155.815C139.457 155.358 139.695 154.989 140.008 154.708C140.325 154.424 140.689 154.219 141.1 154.091C141.512 153.961 141.944 153.896 142.398 153.896C142.698 153.896 143.017 153.931 143.353 154.003C143.693 154.072 144.009 154.199 144.303 154.385C144.6 154.571 144.843 154.837 145.033 155.183C145.222 155.526 145.317 155.972 145.317 156.52V161.515H143.887V160.487H143.828C143.733 160.676 143.591 160.862 143.402 161.045C143.213 161.228 142.969 161.38 142.672 161.501C142.375 161.622 142.019 161.682 141.605 161.682ZM141.923 160.507C142.328 160.507 142.674 160.427 142.961 160.267C143.252 160.107 143.472 159.898 143.622 159.64C143.776 159.379 143.853 159.1 143.853 158.802V157.833C143.8 157.885 143.699 157.934 143.549 157.98C143.402 158.022 143.234 158.06 143.044 158.092C142.855 158.122 142.671 158.149 142.491 158.176C142.312 158.198 142.161 158.218 142.041 158.234C141.757 158.27 141.497 158.331 141.262 158.416C141.03 158.5 140.844 158.623 140.704 158.783C140.567 158.94 140.498 159.149 140.498 159.41C140.498 159.772 140.632 160.046 140.9 160.232C141.167 160.415 141.508 160.507 141.923 160.507ZM147.267 161.515V153.993H148.682V155.188H148.761C148.898 154.784 149.139 154.465 149.485 154.233C149.835 153.998 150.23 153.881 150.671 153.881C150.762 153.881 150.87 153.884 150.994 153.891C151.121 153.897 151.221 153.905 151.292 153.915V155.316C151.234 155.299 151.129 155.281 150.979 155.262C150.829 155.239 150.679 155.228 150.529 155.228C150.182 155.228 149.874 155.301 149.603 155.448C149.335 155.592 149.123 155.792 148.966 156.05C148.81 156.305 148.731 156.595 148.731 156.922V161.515H147.267ZM155.106 161.662C154.499 161.662 153.957 161.507 153.48 161.197C153.007 160.884 152.635 160.438 152.364 159.86C152.096 159.279 151.962 158.582 151.962 157.769C151.962 156.956 152.098 156.261 152.369 155.683C152.643 155.105 153.018 154.663 153.495 154.356C153.972 154.049 154.512 153.896 155.116 153.896C155.583 153.896 155.958 153.974 156.242 154.131C156.53 154.284 156.752 154.464 156.908 154.669C157.068 154.875 157.192 155.056 157.28 155.213H157.369V151.486H158.833V161.515H157.403V160.345H157.28C157.192 160.505 157.065 160.688 156.898 160.894C156.735 161.099 156.51 161.279 156.223 161.432C155.935 161.586 155.563 161.662 155.106 161.662ZM155.429 160.414C155.85 160.414 156.206 160.303 156.497 160.081C156.791 159.855 157.013 159.544 157.163 159.145C157.316 158.747 157.393 158.283 157.393 157.754C157.393 157.232 157.318 156.775 157.168 156.383C157.018 155.991 156.797 155.686 156.507 155.468C156.216 155.249 155.857 155.139 155.429 155.139C154.989 155.139 154.621 155.254 154.327 155.482C154.034 155.711 153.812 156.023 153.661 156.418C153.515 156.813 153.441 157.258 153.441 157.754C153.441 158.257 153.516 158.709 153.666 159.111C153.817 159.513 154.039 159.831 154.332 160.066C154.629 160.298 154.995 160.414 155.429 160.414ZM166.559 155.83L165.232 156.065C165.177 155.895 165.088 155.734 164.968 155.58C164.85 155.427 164.69 155.301 164.488 155.203C164.285 155.105 164.032 155.056 163.729 155.056C163.314 155.056 162.968 155.149 162.691 155.335C162.413 155.518 162.274 155.755 162.274 156.045C162.274 156.297 162.367 156.499 162.553 156.653C162.739 156.806 163.04 156.932 163.454 157.03L164.649 157.304C165.341 157.464 165.857 157.71 166.197 158.043C166.536 158.376 166.706 158.809 166.706 159.341C166.706 159.792 166.576 160.193 166.314 160.546C166.056 160.895 165.696 161.169 165.232 161.369C164.772 161.568 164.238 161.667 163.631 161.667C162.788 161.667 162.101 161.488 161.569 161.129C161.037 160.766 160.71 160.252 160.59 159.586L162.005 159.371C162.093 159.739 162.274 160.019 162.548 160.208C162.823 160.394 163.18 160.487 163.621 160.487C164.101 160.487 164.484 160.387 164.772 160.188C165.059 159.986 165.203 159.739 165.203 159.449C165.203 159.214 165.115 159.016 164.938 158.856C164.765 158.696 164.499 158.576 164.14 158.494L162.867 158.215C162.165 158.055 161.646 157.8 161.31 157.451C160.977 157.102 160.81 156.659 160.81 156.124C160.81 155.68 160.934 155.291 161.182 154.958C161.43 154.625 161.773 154.366 162.211 154.18C162.648 153.99 163.149 153.896 163.714 153.896C164.527 153.896 165.167 154.072 165.634 154.424C166.101 154.774 166.409 155.242 166.559 155.83Z" fill="white" fill-opacity="0.37"/>
<circle cx="292.484" cy="143.617" r="13.1584" fill="white" fill-opacity="0.12"/>
<g clip-path="url(#clip1_84_823)">
<g clip-path="url(#clip2_84_823)">
<path d="M46.1289 126.691C49.9711 121.54 55.7479 120.035 61.062 121.483C66.7982 123.044 71.8417 127.971 73.5166 134.833C73.6032 135.185 73.678 135.537 73.7412 135.888C71.3234 135.027 68.6936 134.96 66.2354 135.699C62.7531 133.123 58.4401 132.69 54.606 134.103C49.8033 135.875 46.0531 140.369 45.1846 146.024C44.0752 153.265 48.4856 159.769 54.7224 165.3L55.7722 166.209C54.9253 166.269 54.0649 166.136 53.2423 165.96C52.8197 165.869 52.3993 165.768 51.9814 165.657L50.5285 165.251C37.6112 161.617 28.9635 155.933 26.4824 147.437C24.5017 140.656 26.4066 133.867 30.5951 129.646C34.4752 125.736 40.2276 124.151 46.1289 126.691ZM50.5339 146.844C51.6919 139.29 60.4288 135.566 64.915 142.049C64.958 142.11 65.023 142.151 65.0959 142.163C65.1688 142.176 65.2438 142.159 65.3046 142.117C71.7362 137.561 78.6711 144.046 77.1748 151.541C76.3089 155.888 72.2774 159.496 65.08 162.364L63.903 162.824L63.1914 163.116C62.5772 163.357 61.9278 163.549 61.3407 163.447C60.7562 163.344 60.2124 162.938 59.7172 162.505L58.8784 161.747C52.6191 156.361 49.8376 151.393 50.5339 146.844Z" fill="#FF459F"/>
</g>
</g>
<circle cx="241.259" cy="143.617" r="13.1584" fill="white" fill-opacity="0.12"/>
<path d="M241.253 141.459C240.498 141.459 239.866 140.827 239.866 140.072C239.866 139.316 240.498 138.684 241.253 138.684C242.009 138.684 242.641 139.316 242.641 140.072C242.641 140.827 242.009 141.459 241.253 141.459ZM240.097 149.844V142.137H242.409V149.844H240.097Z" fill="white" fill-opacity="0.36"/>
<rect x="0.842773" y="197.379" width="332.314" height="88.9736" rx="25.0432" fill="url(#paint2_linear_84_823)"/>
<path d="M108.885 229.979C108.842 229.507 108.65 229.139 108.311 228.877C107.976 228.611 107.497 228.477 106.874 228.477C106.461 228.477 106.117 228.531 105.842 228.639C105.567 228.746 105.361 228.894 105.224 229.083C105.086 229.268 105.015 229.481 105.011 229.721C105.002 229.919 105.041 230.093 105.127 230.244C105.217 230.394 105.346 230.527 105.514 230.643C105.686 230.755 105.892 230.854 106.132 230.94C106.373 231.026 106.644 231.101 106.945 231.165L108.079 231.423C108.732 231.565 109.308 231.754 109.806 231.99C110.309 232.227 110.73 232.508 111.07 232.835C111.413 233.161 111.673 233.537 111.85 233.963C112.026 234.388 112.116 234.865 112.12 235.393C112.116 236.227 111.905 236.942 111.489 237.54C111.072 238.137 110.472 238.595 109.69 238.913C108.913 239.231 107.974 239.39 106.874 239.39C105.769 239.39 104.807 239.224 103.986 238.893C103.165 238.562 102.527 238.06 102.072 237.385C101.616 236.71 101.382 235.857 101.369 234.826H104.424C104.45 235.252 104.564 235.606 104.766 235.89C104.968 236.173 105.245 236.388 105.597 236.534C105.954 236.68 106.367 236.753 106.835 236.753C107.265 236.753 107.63 236.695 107.931 236.579C108.236 236.463 108.47 236.302 108.633 236.096C108.797 235.89 108.88 235.653 108.885 235.387C108.88 235.138 108.803 234.925 108.653 234.749C108.502 234.568 108.27 234.414 107.956 234.285C107.647 234.152 107.252 234.029 106.771 233.917L105.391 233.595C104.248 233.333 103.348 232.91 102.691 232.325C102.033 231.737 101.707 230.942 101.711 229.941C101.707 229.124 101.926 228.409 102.368 227.794C102.811 227.18 103.423 226.701 104.205 226.357C104.987 226.013 105.879 225.841 106.88 225.841C107.903 225.841 108.79 226.015 109.542 226.363C110.298 226.707 110.885 227.191 111.302 227.814C111.718 228.437 111.931 229.159 111.94 229.979H108.885ZM120.119 234.949V229.322H123.264V239.222H120.261V237.379H120.158C119.939 237.984 119.565 238.466 119.036 238.822C118.512 239.175 117.878 239.351 117.135 239.351C116.46 239.351 115.867 239.196 115.356 238.887C114.844 238.577 114.447 238.146 114.163 237.591C113.88 237.033 113.736 236.38 113.732 235.632V229.322H116.883V235.013C116.888 235.55 117.029 235.974 117.309 236.283C117.588 236.592 117.968 236.747 118.45 236.747C118.763 236.747 119.045 236.678 119.294 236.541C119.548 236.399 119.747 236.195 119.893 235.928C120.044 235.658 120.119 235.331 120.119 234.949ZM125.271 239.222V229.322H128.268V231.139H128.377C128.583 230.538 128.932 230.063 129.421 229.715C129.911 229.367 130.496 229.193 131.175 229.193C131.862 229.193 132.451 229.369 132.941 229.721C133.43 230.074 133.742 230.546 133.875 231.139H133.978C134.163 230.551 134.524 230.08 135.061 229.728C135.598 229.371 136.232 229.193 136.963 229.193C137.899 229.193 138.66 229.494 139.244 230.095C139.829 230.693 140.121 231.513 140.121 232.557V239.222H136.969V233.279C136.969 232.785 136.842 232.409 136.589 232.151C136.335 231.889 136.006 231.758 135.603 231.758C135.169 231.758 134.827 231.9 134.578 232.184C134.333 232.463 134.21 232.839 134.21 233.312V239.222H131.181V233.247C131.181 232.787 131.056 232.424 130.807 232.158C130.558 231.891 130.229 231.758 129.821 231.758C129.546 231.758 129.303 231.825 129.093 231.958C128.882 232.087 128.717 232.272 128.596 232.512C128.48 232.753 128.422 233.037 128.422 233.363V239.222H125.271ZM142.074 239.222V229.322H145.071V231.139H145.18C145.387 230.538 145.735 230.063 146.225 229.715C146.714 229.367 147.299 229.193 147.978 229.193C148.665 229.193 149.254 229.369 149.744 229.721C150.234 230.074 150.545 230.546 150.678 231.139H150.782C150.966 230.551 151.327 230.08 151.864 229.728C152.401 229.371 153.035 229.193 153.766 229.193C154.702 229.193 155.463 229.494 156.047 230.095C156.632 230.693 156.924 231.513 156.924 232.557V239.222H153.772V233.279C153.772 232.785 153.645 232.409 153.392 232.151C153.138 231.889 152.81 231.758 152.406 231.758C151.972 231.758 151.63 231.9 151.381 232.184C151.136 232.463 151.014 232.839 151.014 233.312V239.222H147.984V233.247C147.984 232.787 147.86 232.424 147.61 232.158C147.361 231.891 147.032 231.758 146.624 231.758C146.349 231.758 146.106 231.825 145.896 231.958C145.685 232.087 145.52 232.272 145.4 232.512C145.284 232.753 145.226 233.037 145.226 233.363V239.222H142.074ZM163.505 239.409C162.469 239.409 161.575 239.205 160.823 238.797C160.076 238.384 159.5 237.798 159.096 237.037C158.696 236.272 158.497 235.363 158.497 234.311C158.497 233.288 158.699 232.394 159.103 231.629C159.506 230.86 160.076 230.263 160.811 229.837C161.545 229.408 162.411 229.193 163.408 229.193C164.113 229.193 164.757 229.302 165.342 229.522C165.926 229.741 166.431 230.065 166.856 230.495C167.282 230.925 167.613 231.455 167.849 232.087C168.085 232.714 168.204 233.434 168.204 234.246V235.032H159.599V233.202H165.271C165.267 232.867 165.187 232.568 165.032 232.306C164.878 232.044 164.665 231.84 164.394 231.694C164.128 231.543 163.821 231.468 163.473 231.468C163.12 231.468 162.804 231.548 162.525 231.707C162.246 231.861 162.024 232.074 161.861 232.345C161.698 232.611 161.612 232.914 161.603 233.254V235.116C161.603 235.52 161.683 235.875 161.842 236.18C162.001 236.481 162.226 236.715 162.519 236.882C162.811 237.05 163.159 237.134 163.563 237.134C163.842 237.134 164.096 237.095 164.323 237.018C164.551 236.94 164.747 236.826 164.91 236.676C165.073 236.526 165.196 236.341 165.277 236.122L168.171 236.206C168.051 236.854 167.787 237.419 167.378 237.901C166.975 238.378 166.444 238.749 165.786 239.016C165.129 239.278 164.368 239.409 163.505 239.409ZM169.813 239.222V229.322H172.875V231.127H172.978C173.158 230.473 173.453 229.988 173.861 229.67C174.269 229.348 174.744 229.186 175.285 229.186C175.432 229.186 175.582 229.197 175.737 229.219C175.891 229.236 176.035 229.264 176.168 229.302V232.042C176.018 231.99 175.82 231.949 175.575 231.919C175.335 231.889 175.12 231.874 174.931 231.874C174.557 231.874 174.22 231.958 173.919 232.126C173.622 232.289 173.388 232.519 173.216 232.815C173.049 233.107 172.965 233.451 172.965 233.847V239.222H169.813Z" fill="white"/>
<path d="M101.715 259.764V258.667L105.109 255.151C105.471 254.769 105.77 254.435 106.005 254.147C106.243 253.857 106.421 253.581 106.539 253.32C106.656 253.059 106.715 252.781 106.715 252.487C106.715 252.154 106.637 251.867 106.48 251.625C106.323 251.38 106.11 251.193 105.839 251.062C105.568 250.928 105.262 250.861 104.923 250.861C104.564 250.861 104.25 250.935 103.983 251.082C103.715 251.229 103.509 251.436 103.366 251.704C103.222 251.971 103.15 252.285 103.15 252.644H101.705C101.705 252.033 101.846 251.5 102.127 251.043C102.407 250.585 102.793 250.231 103.282 249.98C103.772 249.725 104.329 249.598 104.952 249.598C105.582 249.598 106.137 249.724 106.617 249.975C107.1 250.223 107.478 250.563 107.748 250.994C108.019 251.421 108.155 251.904 108.155 252.443C108.155 252.815 108.085 253.179 107.944 253.535C107.807 253.891 107.567 254.288 107.224 254.725C106.882 255.159 106.405 255.687 105.795 256.307L103.801 258.393V258.467H108.317V259.764H101.715ZM113.507 249.598C113.955 249.601 114.396 249.683 114.83 249.843C115.264 250.003 115.656 250.264 116.005 250.626C116.358 250.989 116.638 251.478 116.847 252.095C117.06 252.709 117.167 253.473 117.171 254.387C117.171 255.265 117.082 256.047 116.906 256.733C116.73 257.415 116.477 257.992 116.147 258.462C115.821 258.932 115.424 259.289 114.957 259.534C114.49 259.779 113.965 259.901 113.38 259.901C112.783 259.901 112.252 259.784 111.789 259.549C111.325 259.314 110.948 258.989 110.657 258.574C110.367 258.156 110.186 257.677 110.114 257.135H111.607C111.705 257.566 111.904 257.915 112.205 258.183C112.508 258.447 112.9 258.579 113.38 258.579C114.115 258.579 114.688 258.259 115.099 257.619C115.51 256.976 115.718 256.078 115.721 254.926H115.643C115.473 255.207 115.261 255.448 115.006 255.651C114.755 255.853 114.472 256.01 114.159 256.121C113.845 256.232 113.511 256.287 113.155 256.287C112.577 256.287 112.051 256.145 111.578 255.861C111.105 255.577 110.728 255.187 110.447 254.691C110.166 254.195 110.026 253.628 110.026 252.992C110.026 252.358 110.169 251.784 110.457 251.268C110.747 250.752 111.152 250.344 111.671 250.044C112.193 249.74 112.806 249.591 113.507 249.598ZM113.512 250.871C113.13 250.871 112.786 250.966 112.479 251.155C112.175 251.341 111.936 251.594 111.759 251.914C111.583 252.231 111.495 252.584 111.495 252.972C111.495 253.361 111.58 253.713 111.749 254.03C111.922 254.343 112.158 254.593 112.455 254.779C112.755 254.962 113.098 255.053 113.483 255.053C113.77 255.053 114.038 254.998 114.286 254.887C114.534 254.776 114.751 254.622 114.937 254.426C115.124 254.227 115.269 254.002 115.373 253.751C115.478 253.499 115.53 253.235 115.53 252.957C115.53 252.588 115.442 252.246 115.266 251.929C115.093 251.612 114.854 251.358 114.551 251.165C114.247 250.969 113.901 250.871 113.512 250.871ZM122.328 259.901C121.627 259.901 121.006 259.781 120.468 259.539C119.932 259.297 119.513 258.964 119.209 258.54C118.905 258.116 118.755 257.632 118.758 257.09C118.755 256.666 118.842 256.276 119.018 255.92C119.198 255.561 119.441 255.262 119.748 255.024C120.055 254.782 120.397 254.629 120.776 254.564V254.505C120.277 254.384 119.877 254.116 119.576 253.702C119.276 253.287 119.127 252.81 119.131 252.272C119.127 251.759 119.263 251.302 119.537 250.901C119.815 250.496 120.195 250.177 120.678 249.946C121.161 249.714 121.711 249.598 122.328 249.598C122.939 249.598 123.484 249.715 123.964 249.95C124.447 250.182 124.828 250.501 125.105 250.905C125.383 251.307 125.523 251.762 125.526 252.272C125.523 252.81 125.37 253.287 125.066 253.702C124.762 254.116 124.367 254.384 123.881 254.505V254.564C124.256 254.629 124.594 254.782 124.895 255.024C125.198 255.262 125.44 255.561 125.619 255.92C125.802 256.276 125.895 256.666 125.898 257.09C125.895 257.632 125.742 258.116 125.438 258.54C125.134 258.964 124.713 259.297 124.175 259.539C123.639 259.781 123.024 259.901 122.328 259.901ZM122.328 258.662C122.743 258.662 123.102 258.594 123.406 258.457C123.709 258.316 123.944 258.122 124.111 257.874C124.277 257.623 124.362 257.329 124.366 256.993C124.362 256.643 124.271 256.335 124.091 256.067C123.915 255.799 123.675 255.589 123.372 255.435C123.068 255.282 122.72 255.205 122.328 255.205C121.933 255.205 121.582 255.282 121.276 255.435C120.969 255.589 120.727 255.799 120.551 256.067C120.374 256.335 120.288 256.643 120.291 256.993C120.288 257.329 120.368 257.623 120.531 257.874C120.698 258.122 120.934 258.316 121.241 258.457C121.548 258.594 121.911 258.662 122.328 258.662ZM122.328 253.996C122.661 253.996 122.957 253.929 123.215 253.795C123.473 253.661 123.675 253.475 123.822 253.236C123.972 252.998 124.049 252.719 124.052 252.399C124.049 252.086 123.974 251.811 123.827 251.576C123.683 251.341 123.483 251.16 123.225 251.033C122.967 250.902 122.668 250.837 122.328 250.837C121.982 250.837 121.679 250.902 121.418 251.033C121.16 251.16 120.959 251.341 120.815 251.576C120.672 251.811 120.601 252.086 120.605 252.399C120.601 252.719 120.673 252.998 120.82 253.236C120.967 253.475 121.169 253.661 121.427 253.795C121.689 253.929 121.989 253.996 122.328 253.996ZM134.49 259.916C133.762 259.916 133.136 259.751 132.61 259.422C132.088 259.089 131.686 258.63 131.405 258.045C131.124 257.461 130.984 256.792 130.984 256.038C130.984 255.274 131.128 254.599 131.415 254.015C131.702 253.427 132.107 252.969 132.63 252.639C133.152 252.309 133.767 252.144 134.476 252.144C135.047 252.144 135.556 252.25 136.004 252.463C136.451 252.672 136.812 252.965 137.086 253.344C137.363 253.723 137.528 254.165 137.581 254.671H136.155C136.077 254.319 135.898 254.015 135.617 253.76C135.339 253.506 134.967 253.378 134.5 253.378C134.092 253.378 133.735 253.486 133.428 253.702C133.124 253.914 132.887 254.218 132.718 254.613C132.548 255.004 132.463 255.468 132.463 256.003C132.463 256.552 132.546 257.025 132.713 257.423C132.879 257.822 133.114 258.13 133.418 258.349C133.725 258.568 134.086 258.677 134.5 258.677C134.778 258.677 135.029 258.627 135.254 258.525C135.483 258.421 135.674 258.272 135.827 258.08C135.984 257.887 136.093 257.655 136.155 257.384H137.581C137.528 257.871 137.37 258.305 137.105 258.687C136.841 259.069 136.487 259.369 136.043 259.588C135.602 259.807 135.085 259.916 134.49 259.916ZM141.335 259.931C140.859 259.931 140.428 259.843 140.043 259.666C139.657 259.487 139.352 259.227 139.127 258.888C138.905 258.548 138.794 258.132 138.794 257.639C138.794 257.215 138.875 256.865 139.039 256.591C139.202 256.317 139.422 256.1 139.7 255.94C139.977 255.78 140.287 255.659 140.63 255.577C140.973 255.496 141.322 255.434 141.678 255.391C142.129 255.339 142.494 255.297 142.775 255.264C143.056 255.228 143.26 255.171 143.387 255.092C143.515 255.014 143.578 254.887 143.578 254.71V254.676C143.578 254.249 143.457 253.917 143.216 253.682C142.978 253.447 142.622 253.329 142.148 253.329C141.655 253.329 141.267 253.439 140.983 253.658C140.702 253.873 140.508 254.113 140.4 254.377L139.024 254.064C139.187 253.607 139.426 253.238 139.739 252.957C140.056 252.673 140.42 252.468 140.831 252.34C141.242 252.21 141.675 252.144 142.129 252.144C142.429 252.144 142.747 252.18 143.084 252.252C143.423 252.321 143.74 252.448 144.034 252.634C144.331 252.82 144.574 253.086 144.763 253.432C144.953 253.775 145.047 254.221 145.047 254.769V259.764H143.617V258.736H143.559C143.464 258.925 143.322 259.111 143.133 259.294C142.943 259.477 142.7 259.629 142.403 259.75C142.106 259.87 141.75 259.931 141.335 259.931ZM141.654 258.756C142.059 258.756 142.405 258.676 142.692 258.516C142.982 258.356 143.203 258.147 143.353 257.889C143.506 257.628 143.583 257.348 143.583 257.051V256.082C143.531 256.134 143.43 256.183 143.28 256.229C143.133 256.271 142.964 256.309 142.775 256.341C142.586 256.371 142.401 256.398 142.222 256.424C142.042 256.447 141.892 256.467 141.771 256.483C141.487 256.519 141.228 256.58 140.993 256.664C140.761 256.749 140.575 256.872 140.434 257.032C140.297 257.188 140.229 257.397 140.229 257.659C140.229 258.021 140.362 258.295 140.63 258.481C140.898 258.664 141.239 258.756 141.654 258.756ZM146.998 259.764V252.242H148.413V253.437H148.491C148.628 253.032 148.87 252.714 149.216 252.482C149.565 252.247 149.96 252.13 150.401 252.13C150.493 252.13 150.6 252.133 150.724 252.139C150.852 252.146 150.951 252.154 151.023 252.164V253.565C150.964 253.548 150.86 253.53 150.71 253.511C150.56 253.488 150.409 253.476 150.259 253.476C149.913 253.476 149.605 253.55 149.334 253.697C149.066 253.84 148.854 254.041 148.697 254.299C148.54 254.554 148.462 254.844 148.462 255.171V259.764H146.998ZM154.837 259.911C154.23 259.911 153.688 259.756 153.211 259.446C152.738 259.133 152.365 258.687 152.094 258.109C151.827 257.528 151.693 256.831 151.693 256.018C151.693 255.205 151.828 254.51 152.099 253.932C152.373 253.354 152.749 252.912 153.226 252.605C153.702 252.298 154.243 252.144 154.847 252.144C155.313 252.144 155.689 252.223 155.973 252.379C156.26 252.533 156.482 252.712 156.639 252.918C156.799 253.124 156.923 253.305 157.011 253.462H157.099V249.735H158.563V259.764H157.133V258.594H157.011C156.923 258.754 156.796 258.937 156.629 259.142C156.466 259.348 156.241 259.528 155.953 259.681C155.666 259.835 155.294 259.911 154.837 259.911ZM155.16 258.662C155.581 258.662 155.937 258.551 156.228 258.329C156.521 258.104 156.743 257.792 156.894 257.394C157.047 256.996 157.124 256.532 157.124 256.003C157.124 255.481 157.049 255.024 156.898 254.632C156.748 254.24 156.528 253.935 156.237 253.716C155.947 253.498 155.588 253.388 155.16 253.388C154.719 253.388 154.352 253.503 154.058 253.731C153.764 253.96 153.542 254.271 153.392 254.666C153.245 255.061 153.172 255.507 153.172 256.003C153.172 256.506 153.247 256.958 153.397 257.36C153.547 257.761 153.769 258.08 154.063 258.315C154.36 258.547 154.726 258.662 155.16 258.662ZM166.29 254.079L164.963 254.314C164.907 254.144 164.819 253.982 164.698 253.829C164.581 253.676 164.421 253.55 164.218 253.452C164.016 253.354 163.763 253.305 163.459 253.305C163.045 253.305 162.699 253.398 162.421 253.584C162.144 253.767 162.005 254.004 162.005 254.294C162.005 254.546 162.098 254.748 162.284 254.901C162.47 255.055 162.77 255.181 163.185 255.279L164.38 255.553C165.072 255.713 165.588 255.959 165.928 256.292C166.267 256.625 166.437 257.058 166.437 257.59C166.437 258.041 166.306 258.442 166.045 258.795C165.787 259.144 165.426 259.418 164.963 259.617C164.502 259.817 163.969 259.916 163.361 259.916C162.519 259.916 161.832 259.737 161.3 259.377C160.768 259.015 160.441 258.501 160.32 257.835L161.736 257.619C161.824 257.988 162.005 258.267 162.279 258.457C162.553 258.643 162.911 258.736 163.352 258.736C163.832 258.736 164.215 258.636 164.502 258.437C164.79 258.235 164.933 257.988 164.933 257.698C164.933 257.463 164.845 257.265 164.669 257.105C164.496 256.945 164.23 256.824 163.871 256.743L162.597 256.464C161.896 256.304 161.376 256.049 161.04 255.7C160.707 255.35 160.541 254.908 160.541 254.373C160.541 253.929 160.665 253.54 160.913 253.207C161.161 252.874 161.504 252.615 161.941 252.428C162.379 252.239 162.88 252.144 163.445 252.144C164.258 252.144 164.897 252.321 165.364 252.673C165.831 253.023 166.14 253.491 166.29 254.079Z" fill="white" fill-opacity="0.37"/>
<circle cx="292.484" cy="241.866" r="13.1584" fill="white" fill-opacity="0.12"/>
<g clip-path="url(#clip3_84_823)">
<path d="M72.0645 218.917C72.0645 219.715 71.4948 220.39 70.7041 220.525L62.131 221.959L57.8638 233.602H54.3911L59.3948 219.944C59.5963 219.394 60.0808 218.994 60.6621 218.901L70.1655 217.308C71.0568 217.161 71.8941 217.762 72.0413 218.649C72.0413 218.649 72.0413 218.653 72.0451 218.653C72.0567 218.746 72.0645 218.832 72.0645 218.917Z" fill="#E5D418"/>
<path d="M38.361 233.602H36.3688L35.7061 230.141C35.7451 230.133 37.7519 229.744 37.6247 229.769L38.361 233.602Z" fill="#E5D418"/>
<path d="M36.1378 229.268L34.0094 218.184L30.6274 230.326L36.1378 229.268Z" fill="#E5D418"/>
<path d="M36.8993 229.121L42.4098 228.063L34.771 218.038L36.8993 229.121Z" fill="#E5D418"/>
<path d="M48.2497 225.271L35.5068 217.725L43.2599 227.9L47.9501 226.999C48.7964 226.837 48.9932 225.712 48.2497 225.271Z" fill="#E5D418"/>
<path d="M33.21 218.165L24.1685 229.896C23.6412 230.581 24.2405 231.553 25.0868 231.39L29.7773 230.489L33.21 218.165Z" fill="#E5D418"/>
<path d="M66.3592 235.618C65.8864 234.854 65.0221 234.377 64.1074 234.377H34.1518C33.2217 234.377 32.3768 234.842 31.8961 235.621C29.9621 238.757 28.9273 242.361 28.9 246.047C28.8123 257.167 37.9069 266.429 49.1082 266.445H49.1237C60.2803 266.445 69.3589 257.424 69.3589 246.214C69.3591 242.466 68.3203 238.8 66.3592 235.618ZM37.9192 243.757C36.7536 243.757 35.8068 242.811 35.8068 241.645C35.8068 240.476 36.7536 239.529 37.9192 239.529C39.0883 239.529 40.0352 240.476 40.0352 241.645C40.0353 242.811 39.0883 243.757 37.9192 243.757ZM42.4654 249.712C41.2999 249.712 40.353 248.765 40.353 247.6C40.353 246.431 41.2998 245.484 42.4654 245.484C43.6347 245.484 44.5814 246.431 44.5814 247.6C44.5815 248.766 43.6348 249.712 42.4654 249.712ZM47.0118 243.757C45.8462 243.757 44.8994 242.811 44.8994 241.645C44.8994 240.476 45.8462 239.529 47.0118 239.529C48.181 239.529 49.1278 240.476 49.1278 241.645C49.1277 242.811 48.181 243.757 47.0118 243.757Z" fill="#E5D418"/>
</g>
<circle cx="241.258" cy="241.866" r="13.1584" fill="white" fill-opacity="0.12"/>
<path d="M241.253 239.708C240.498 239.708 239.866 239.076 239.866 238.321C239.866 237.565 240.498 236.933 241.253 236.933C242.008 236.933 242.64 237.565 242.64 238.321C242.64 239.076 242.008 239.708 241.253 239.708ZM240.097 248.093V240.386H242.409V248.093H240.097Z" fill="white" fill-opacity="0.36"/>
</g>
<defs>
<linearGradient id="paint0_linear_84_823" x1="75.8644" y1="3.47083" x2="90.3819" y2="114.48" gradientUnits="userSpaceOnUse">
<stop offset="0.671099" stop-color="#1B1C37"/>
<stop offset="1" stop-color="#2B2D5D"/>
</linearGradient>
<linearGradient id="paint1_linear_84_823" x1="75.8644" y1="101.72" x2="90.3819" y2="212.729" gradientUnits="userSpaceOnUse">
<stop offset="0.671099" stop-color="#1B1C37"/>
<stop offset="1" stop-color="#2B2D5D"/>
</linearGradient>
<linearGradient id="paint2_linear_84_823" x1="75.8644" y1="199.969" x2="90.3819" y2="310.977" gradientUnits="userSpaceOnUse">
<stop offset="0.671099" stop-color="#1B1C37"/>
<stop offset="1" stop-color="#2B2D5D"/>
</linearGradient>
<clipPath id="clip0_84_823">
<rect width="46.3763" height="50.0864" fill="white" transform="translate(26.4834 19.1119)"/>
</clipPath>
<clipPath id="clip1_84_823">
<rect width="52.0937" height="46.2097" fill="white" transform="translate(25.3994 120.512)"/>
</clipPath>
<clipPath id="clip2_84_823">
<rect width="64.9382" height="64.9382" fill="white" transform="translate(20.4297 111.017)"/>
</clipPath>
<clipPath id="clip3_84_823">
<rect width="49.1589" height="49.1589" fill="white" transform="translate(23.4375 217.286)"/>
</clipPath>
</defs>
</svg>
