<svg width="61" height="58" viewBox="0 0 61 58" fill="none" xmlns="http://www.w3.org/2000/svg">
<g clip-path="url(#clip0_84_529)">
<g clip-path="url(#clip1_84_529)">
<path d="M46.7295 7.00979H48.4696V8.78332C48.5445 10.8413 51.4422 10.8398 51.5164 8.78332V7.00979H53.2565C55.2757 6.93339 55.2742 3.97999 53.2565 3.90432H51.5164V2.13068C51.4415 0.0726877 48.5438 0.0742406 48.4696 2.13068V3.90432H46.7295C44.7103 3.98071 44.7119 6.93412 46.7295 7.00979Z" fill="#FF459F"/>
<path d="M7.56702 7.00979H9.3071V8.78332C9.38205 10.8413 12.2797 10.8398 12.354 8.78332V7.00979H14.094C16.1132 6.93339 16.1117 3.97999 14.094 3.90432H12.354V2.13068C12.279 0.0726877 9.38134 0.0742406 9.3071 2.13068V3.90432H7.56702C5.54786 3.98071 5.54938 6.93412 7.56702 7.00979Z" fill="#FF459F"/>
<path d="M54.8884 47.9778H53.9641V47.0358C53.8892 44.9778 50.9915 44.9793 50.9173 47.0358V47.9779H49.993C47.9739 48.0543 47.9754 51.0077 49.993 51.0833H50.9173V52.0253C50.9922 54.0833 53.8899 54.0818 53.9641 52.0253V51.0833H54.8884C56.9075 51.0069 56.906 48.0534 54.8884 47.9778Z" fill="#FF459F"/>
<path d="M10.8305 47.9778H9.90628V47.0358C9.83133 44.9778 6.93365 44.9793 6.85941 47.0358V47.9779H5.93519C3.91602 48.0543 3.91755 51.0077 5.93519 51.0833H6.85941V52.0253C6.93436 54.0833 9.83204 54.0818 9.90628 52.0253V51.0833H10.8305C12.8497 51.0069 12.8481 48.0534 10.8305 47.9778Z" fill="#FF459F"/>
<path d="M54.8883 13.8831H46.7295C39.62 13.8831 33.684 19.0976 32.407 25.971C32.2539 25.8991 32.0965 25.8352 31.9353 25.7798V18.7622C31.9353 14.1159 35.6439 10.3361 40.2025 10.3361C41.0438 10.3361 41.7259 9.64085 41.7259 8.78333C41.7259 7.9258 41.0438 7.23059 40.2025 7.23059C36.0269 7.23059 32.3722 9.54831 30.4118 12.9875C28.4515 9.5482 24.7968 7.23059 20.6212 7.23059C19.7799 7.23059 19.0978 7.9258 19.0978 8.78333C19.0978 9.64085 19.7799 10.3361 20.6212 10.3361C25.1798 10.3361 28.8884 14.116 28.8884 18.7622V25.7798C28.7272 25.8352 28.5697 25.8991 28.4166 25.971C27.1397 19.0976 21.2037 13.8831 14.0942 13.8831H5.93518C5.09384 13.8831 4.41174 14.5783 4.41174 15.4359V23.7516C4.41174 30.8311 9.29507 36.7691 15.8085 38.2524C11.9979 42.9434 15.4093 50.3058 21.4371 50.2515C25.4261 50.2516 28.6716 46.9436 28.6716 42.8779V41.6007C29.739 42.0439 31.0844 42.0439 32.1518 41.6007V42.8779C32.1518 46.9436 35.3972 50.2515 39.3864 50.2515C45.4147 50.306 48.8254 42.9411 45.0149 38.2523C51.5284 36.7691 56.4117 30.8311 56.4117 23.7516V15.4359C56.4117 14.5783 55.7296 13.8831 54.8883 13.8831ZM7.45862 23.7516V16.9886H14.094C20.1879 16.9886 25.192 21.832 25.5974 27.94C22.9277 24.4486 18.7643 22.1988 14.094 22.1988C13.2527 22.1988 12.5706 22.8957 12.5706 23.7533C12.5706 28.5124 14.7778 32.7555 18.2036 35.4764C12.2107 35.0632 7.45862 29.9627 7.45862 23.7516ZM25.5088 35.386C20.4603 34.6508 16.4553 30.5692 15.7336 25.4226C20.7825 26.1577 24.7875 30.2399 25.5088 35.386ZM25.6248 42.878C25.6248 45.2314 23.7462 47.1461 21.4371 47.1461C15.8887 46.9315 15.8909 38.8231 21.4371 38.6096H25.6248V42.878ZM32.1518 37.0569C32.0641 39.4071 28.7585 39.4052 28.6716 37.0569V30.4042C28.7593 28.0539 32.0648 28.0557 32.1518 30.4042V37.0569ZM39.3865 47.1461C37.0774 47.1461 35.1988 45.2314 35.1988 42.878V38.6096H39.3865C44.9359 38.8249 44.9317 46.9329 39.3865 47.1461ZM35.3147 35.3858C36.036 30.2401 40.0405 26.1583 45.09 25.4227C44.3688 30.5684 40.3642 34.6501 35.3147 35.3858ZM53.3649 23.7516C53.3649 29.9627 48.6129 35.0631 42.62 35.4763C46.0456 32.7553 48.2529 28.5116 48.2529 23.7516C48.2529 22.8941 47.5692 22.1988 46.7279 22.1988C42.0586 22.1988 37.8956 24.4486 35.2261 27.9399C35.6315 21.8319 40.6356 16.9886 46.7295 16.9886H53.3649V23.7516Z" fill="#FF459F"/>
</g>
</g>
<defs>
<clipPath id="clip0_84_529">
<rect width="59.5752" height="56.6152" fill="white" transform="translate(0.624146 0.577942)"/>
</clipPath>
<clipPath id="clip1_84_529">
<rect width="52" height="53" fill="white" transform="translate(4.41174 0.577942)"/>
</clipPath>
</defs>
</svg>
