<svg width="29" height="29" viewBox="0 0 29 29" fill="none" xmlns="http://www.w3.org/2000/svg">
<path d="M19.6556 10.2535V9.08598C19.6556 7.84739 19.1636 6.65954 18.2878 5.78373C17.412 4.90792 16.2241 4.41589 14.9855 4.41589C13.7469 4.41589 12.5591 4.90792 11.6833 5.78373C10.8075 6.65954 10.3154 7.84739 10.3154 9.08598V10.2535" stroke="#C6C6C6" stroke-width="2.33504" stroke-linecap="round"/>
<path fill-rule="evenodd" clip-rule="evenodd" d="M5.50428 10.1122C4.47803 11.1373 4.47803 12.7893 4.47803 16.0911V17.2586C4.47803 21.6613 4.47803 23.8633 5.84636 25.2304C7.2147 26.5976 9.41547 26.5988 13.8182 26.5988H16.1532C20.556 26.5988 22.7579 26.5988 24.1251 25.2304C25.4922 23.8621 25.4934 21.6613 25.4934 17.2586V16.0911C25.4934 12.7893 25.4934 11.1373 24.4672 10.1122C23.4421 9.08594 21.79 9.08594 18.4883 9.08594H11.4832C8.1814 9.08594 6.52936 9.08594 5.50428 10.1122ZM14.9857 18.4261C15.2954 18.4261 15.5923 18.3031 15.8113 18.0841C16.0302 17.8652 16.1532 17.5682 16.1532 17.2586C16.1532 16.9489 16.0302 16.652 15.8113 16.433C15.5923 16.2141 15.2954 16.0911 14.9857 16.0911C14.6761 16.0911 14.3791 16.2141 14.1602 16.433C13.9412 16.652 13.8182 16.9489 13.8182 17.2586C13.8182 17.5682 13.9412 17.8652 14.1602 18.0841C14.3791 18.3031 14.6761 18.4261 14.9857 18.4261ZM18.4883 17.2586C18.4887 17.9832 18.2643 18.6901 17.8461 19.2819C17.4279 19.8736 16.8364 20.3211 16.1532 20.5627V23.0962H13.8182V20.5627C13.2124 20.3488 12.6771 19.9725 12.2708 19.475C11.8644 18.9774 11.6027 18.3777 11.5142 17.7414C11.4257 17.1051 11.5139 16.4568 11.769 15.8672C12.0242 15.2776 12.4365 14.7695 12.9609 14.3985C13.4853 14.0275 14.1017 13.8078 14.7426 13.7634C15.3834 13.719 16.0242 13.8517 16.5947 14.1469C17.1653 14.4422 17.6437 14.8886 17.9776 15.4374C18.3116 15.9861 18.4882 16.6162 18.4883 17.2586Z" fill="#C6C6C6"/>
</svg>
