<svg width="1024" height="1024" viewBox="0 0 1024 1024" fill="none" xmlns="http://www.w3.org/2000/svg">
<g clip-path="url(#clip0_12_395)" filter="url(#filter0_i_12_395)">
<rect width="1024" height="1024" fill="url(#paint0_linear_12_395)"/>
<g filter="url(#filter1_bf_12_395)">
<rect x="41.145" y="41.1451" width="941.71" height="941.71" rx="239" fill="white" fill-opacity="0.05"/>
</g>
<g opacity="0.08">
<path d="M1181.88 586.487C1074.92 478.946 915.065 456.856 785.434 518.475L729.629 462.669C724.251 457.281 717.863 453.005 710.831 450.088C703.798 447.171 696.26 445.67 688.647 445.67C681.034 445.67 673.495 447.171 666.463 450.088C659.431 453.005 653.043 457.281 647.665 462.669L643.014 467.901C634.876 411.515 586.628 367.917 528.498 367.917C464.554 367.917 412.237 420.234 412.237 484.178C412.237 489.409 412.237 494.641 413.981 499.292C378.521 519.637 354.106 556.841 354.106 600.438C354.106 627.178 363.407 651.012 378.521 670.776C371.064 675.909 364.952 682.761 360.703 690.755C356.453 698.748 354.191 707.647 354.106 716.699V795.175C218.663 842.842 121.585 971.891 121.585 1123.61C121.585 1316.02 277.956 1472.39 470.367 1472.39C662.779 1472.39 819.149 1316.02 819.149 1123.61C819.152 1051.53 796.786 981.23 755.138 922.402C713.49 863.574 654.612 819.121 586.628 795.175V716.699C586.544 707.647 584.281 698.748 580.032 690.755C575.782 682.761 569.67 675.909 562.213 670.776C577.327 651.012 586.628 627.178 586.628 600.438C586.628 595.207 586.628 589.975 584.884 585.324C595.348 579.511 604.067 571.373 611.624 564.398C665.685 593.463 702.889 650.43 702.889 716.699V721.35C710.446 725.419 717.421 731.232 724.978 735.882C736.023 711.467 751.137 687.634 770.901 668.451C814.59 624.931 873.744 600.496 935.41 600.496C997.076 600.496 1056.23 624.931 1099.92 668.451C1143.44 712.14 1167.87 771.294 1167.87 832.96C1167.87 894.626 1143.44 953.78 1099.92 997.469C1053.41 1043.97 993.541 1065.48 931.341 1065.48C935.41 1084.08 935.41 1103.85 935.41 1123.61C935.41 1143.38 933.666 1162.56 931.341 1181.74C1022.61 1181.74 1112.71 1148.61 1181.88 1079.43C1214.36 1047.13 1240.14 1008.72 1257.73 966.425C1275.31 924.127 1284.37 878.769 1284.37 832.96C1284.37 787.15 1275.31 741.793 1257.73 699.494C1240.14 657.196 1214.36 618.791 1181.88 586.487ZM528.498 426.047C560.469 426.047 586.628 452.206 586.628 484.178C586.628 503.361 576.746 519.637 562.213 530.101C541.286 502.198 508.152 484.178 470.367 484.178C470.367 452.206 496.526 426.047 528.498 426.047ZM436.652 554.515C457.579 582.418 490.713 600.438 528.498 600.438C528.498 632.41 502.339 658.569 470.367 658.569C438.395 658.569 412.237 632.41 412.237 600.438C412.237 581.255 422.119 564.979 436.652 554.515ZM702.889 1123.61C702.889 1252.08 598.835 1356.13 470.367 1356.13C341.899 1356.13 237.846 1252.08 237.846 1123.61C237.846 995.144 341.899 891.09 470.367 891.09C598.835 891.09 702.889 995.144 702.889 1123.61Z" fill="white"/>
</g>
<path d="M117.967 313.679V467.251H90.1473V313.679H117.967ZM226.417 399.763V467.251H199.271V313.679H225.817V371.643H227.166C229.866 365.144 234.04 360.02 239.689 356.271C245.388 352.472 252.637 350.572 261.435 350.572C269.434 350.572 276.408 352.247 282.356 355.596C288.305 358.945 292.905 363.845 296.154 370.293C299.453 376.742 301.103 384.616 301.103 393.914V467.251H273.958V398.113C273.958 390.365 271.958 384.341 267.959 380.042C264.01 375.692 258.461 373.518 251.312 373.518C246.513 373.518 242.214 374.568 238.414 376.667C234.665 378.717 231.716 381.691 229.566 385.591C227.466 389.49 226.417 394.214 226.417 399.763ZM361.917 469.576C354.619 469.576 348.045 468.276 342.196 465.676C336.397 463.027 331.798 459.127 328.398 453.978C325.049 448.829 323.374 442.48 323.374 434.932C323.374 428.433 324.574 423.059 326.973 418.81C329.373 414.561 332.647 411.161 336.797 408.612C340.946 406.062 345.62 404.137 350.819 402.838C356.068 401.488 361.492 400.513 367.091 399.913C373.84 399.213 379.314 398.588 383.513 398.038C387.713 397.439 390.762 396.539 392.662 395.339C394.611 394.089 395.586 392.165 395.586 389.565V389.115C395.586 383.466 393.911 379.092 390.562 375.992C387.213 372.893 382.389 371.343 376.09 371.343C369.441 371.343 364.167 372.793 360.268 375.692C356.418 378.592 353.819 382.016 352.469 385.966L327.123 382.366C329.123 375.368 332.423 369.519 337.022 364.819C341.621 360.07 347.245 356.521 353.894 354.171C360.542 351.772 367.891 350.572 375.94 350.572C381.489 350.572 387.013 351.222 392.512 352.522C398.011 353.821 403.035 355.971 407.584 358.97C412.133 361.92 415.783 365.944 418.532 371.043C421.332 376.142 422.731 382.516 422.731 390.165V467.251H396.636V451.429H395.736C394.086 454.628 391.762 457.628 388.762 460.427C385.813 463.177 382.089 465.401 377.589 467.101C373.14 468.751 367.916 469.576 361.917 469.576ZM368.966 449.629C374.415 449.629 379.139 448.554 383.138 446.405C387.138 444.205 390.212 441.306 392.362 437.706C394.561 434.107 395.661 430.183 395.661 425.933V412.361C394.811 413.061 393.362 413.711 391.312 414.311C389.312 414.91 387.063 415.435 384.563 415.885C382.064 416.335 379.589 416.735 377.139 417.085C374.69 417.435 372.565 417.735 370.766 417.985C366.716 418.535 363.092 419.435 359.893 420.684C356.693 421.934 354.169 423.684 352.319 425.933C350.469 428.133 349.544 430.983 349.544 434.482C349.544 439.481 351.369 443.255 355.018 445.805C358.668 448.354 363.317 449.629 368.966 449.629ZM548.784 352.072L507.766 467.251H477.771L436.754 352.072H465.699L492.169 437.631H493.369L519.914 352.072H548.784ZM614.641 469.501C603.093 469.501 593.119 467.101 584.721 462.302C576.372 457.453 569.949 450.604 565.449 441.756C560.95 432.857 558.701 422.384 558.701 410.336C558.701 398.488 560.95 388.09 565.449 379.142C569.999 370.143 576.347 363.145 584.496 358.146C592.644 353.097 602.218 350.572 613.216 350.572C620.315 350.572 627.013 351.722 633.312 354.021C639.661 356.271 645.26 359.77 650.109 364.519C655.008 369.269 658.858 375.318 661.657 382.666C664.457 389.965 665.856 398.663 665.856 408.762V417.085H571.448V398.788H639.836C639.786 393.589 638.661 388.965 636.462 384.916C634.262 380.817 631.188 377.592 627.238 375.243C623.339 372.893 618.79 371.718 613.591 371.718C608.042 371.718 603.168 373.068 598.968 375.767C594.769 378.417 591.495 381.916 589.145 386.266C586.846 390.565 585.671 395.289 585.621 400.438V416.41C585.621 423.109 586.846 428.858 589.295 433.657C591.745 438.406 595.169 442.056 599.568 444.605C603.967 447.105 609.117 448.354 615.015 448.354C618.965 448.354 622.539 447.805 625.739 446.705C628.938 445.555 631.712 443.88 634.062 441.681C636.412 439.481 638.186 436.757 639.386 433.507L664.732 436.357C663.132 443.055 660.082 448.904 655.583 453.903C651.134 458.853 645.435 462.702 638.486 465.451C631.538 468.151 623.589 469.501 614.641 469.501Z" fill="white"/>
<path d="M247.075 515.66V700.749H205.141L138.263 603.505H137.178V700.749H86.9296V515.66H129.587L195.38 612.543H196.826V515.66H247.075ZM270.844 700.749V515.66H404.238V556.148H321.092V587.96H397.369V628.449H321.092V660.261H403.876V700.749H270.844ZM479.769 515.66L517.727 646.162H519.173L557.13 515.66H613.886L552.792 700.749H484.107L423.013 515.66H479.769ZM631.713 700.749V515.66H765.107V556.148H681.961V587.96H758.238V628.449H681.961V660.261H764.745V700.749H631.713ZM790.028 700.749V515.66H869.92C883.657 515.66 895.677 518.16 905.98 523.161C916.282 528.162 924.296 535.362 930.019 544.761C935.743 554.16 938.605 565.427 938.605 578.561C938.605 591.816 935.653 602.993 929.748 612.091C923.904 621.188 915.68 628.057 905.076 632.696C894.532 637.336 882.211 639.655 868.112 639.655H820.394V600.613H857.99C863.895 600.613 868.926 599.89 873.083 598.444C877.3 596.938 880.524 594.558 882.753 591.304C885.043 588.051 886.187 583.803 886.187 578.561C886.187 573.259 885.043 568.951 882.753 565.638C880.524 562.264 877.3 559.793 873.083 558.227C868.926 556.6 863.895 555.787 857.99 555.787H840.277V700.749H790.028ZM898.478 615.796L944.751 700.749H890.164L844.976 615.796H898.478Z" fill="white"/>
<path d="M848.817 209.526V231.216C848.817 237.121 847.612 243.055 845.202 249.02C842.792 254.985 839.749 260.498 836.074 265.559C832.399 270.62 828.693 274.717 824.958 277.85L804.352 267.366C807.485 262.125 809.925 256.642 811.673 250.918C813.36 245.194 814.173 238.627 814.113 231.216V209.526H848.817ZM803.629 209.526V231.216C803.629 237.121 802.424 243.055 800.014 249.02C797.604 254.985 794.562 260.498 790.886 265.559C787.211 270.62 783.506 274.717 779.77 277.85L759.164 267.366C762.298 262.125 764.738 256.642 766.485 250.918C768.172 245.194 768.985 238.627 768.925 231.216V209.526H803.629Z" fill="#01C640"/>
</g>
<defs>
<filter id="filter0_i_12_395" x="-60" y="0" width="1084" height="1063" filterUnits="userSpaceOnUse" color-interpolation-filters="sRGB">
<feFlood flood-opacity="0" result="BackgroundImageFix"/>
<feBlend mode="normal" in="SourceGraphic" in2="BackgroundImageFix" result="shape"/>
<feColorMatrix in="SourceAlpha" type="matrix" values="0 0 0 0 0 0 0 0 0 0 0 0 0 0 0 0 0 0 127 0" result="hardAlpha"/>
<feOffset dx="-60" dy="39"/>
<feGaussianBlur stdDeviation="36.95"/>
<feComposite in2="hardAlpha" operator="arithmetic" k2="-1" k3="1"/>
<feColorMatrix type="matrix" values="0 0 0 0 0 0 0 0 0 0 0 0 0 0 0 0 0 0 0.22 0"/>
<feBlend mode="normal" in2="shape" result="effect1_innerShadow_12_395"/>
</filter>
<filter id="filter1_bf_12_395" x="-29.355" y="-29.3549" width="1082.71" height="1082.71" filterUnits="userSpaceOnUse" color-interpolation-filters="sRGB">
<feFlood flood-opacity="0" result="BackgroundImageFix"/>
<feGaussianBlur in="BackgroundImageFix" stdDeviation="35.25"/>
<feComposite in2="SourceAlpha" operator="in" result="effect1_backgroundBlur_12_395"/>
<feBlend mode="normal" in="SourceGraphic" in2="effect1_backgroundBlur_12_395" result="shape"/>
<feGaussianBlur stdDeviation="27.15" result="effect2_foregroundBlur_12_395"/>
</filter>
<linearGradient id="paint0_linear_12_395" x1="512" y1="0" x2="512" y2="1024" gradientUnits="userSpaceOnUse">
<stop stop-color="#2A0F76"/>
<stop offset="1" stop-color="#4E1CDC"/>
</linearGradient>
<clipPath id="clip0_12_395">
<rect width="1024" height="1024" fill="white"/>
</clipPath>
</defs>
</svg>
