<svg width="54" height="54" viewBox="0 0 54 54" fill="none" xmlns="http://www.w3.org/2000/svg">
<g clip-path="url(#clip0_84_449)">
<path d="M53.0503 2.331C53.0503 3.19184 52.436 3.91893 51.5836 4.06509L42.3407 5.6112L37.74 18.1637H33.996L39.3906 3.43841C39.6079 2.84506 40.1302 2.41464 40.757 2.31433L51.0029 0.596906C51.9638 0.438113 52.8666 1.08581 53.0253 2.04271C53.0253 2.04271 53.0252 2.04685 53.0294 2.04685C53.0419 2.14726 53.0503 2.23918 53.0503 2.331Z" fill="#E5D418"/>
<path d="M16.7135 18.1637H14.5656L13.8511 14.4322C13.8932 14.424 16.0568 14.0045 15.9196 14.0311L16.7135 18.1637Z" fill="#E5D418"/>
<path d="M14.3166 13.4906L12.022 1.54128L8.37573 14.6314L14.3166 13.4906Z" fill="#E5D418"/>
<path d="M15.1374 13.333L21.0785 12.1919L12.8428 1.38321L15.1374 13.333Z" fill="#E5D418"/>
<path d="M27.375 9.18156L13.6365 1.04596L21.9954 12.0159L27.052 11.0448C27.9645 10.8695 28.1766 9.65742 27.375 9.18156Z" fill="#E5D418"/>
<path d="M11.1602 1.52068L1.41209 14.1677C0.843689 14.9067 1.48973 15.954 2.40222 15.7787L7.45917 14.8075L11.1602 1.52068Z" fill="#E5D418"/>
<path d="M46.8996 20.3366C46.3898 19.5135 45.4579 18.9995 44.4719 18.9995H12.1756C11.1728 18.9995 10.2619 19.5009 9.7437 20.3409C7.65859 23.7213 6.54289 27.6073 6.5135 31.5813C6.41888 43.5703 16.2241 53.5556 28.3006 53.573H28.3173C40.3457 53.573 50.1336 43.8467 50.1336 31.7608C50.1338 27.7202 49.0139 23.7672 46.8996 20.3366ZM16.2373 29.1126C14.9807 29.1126 13.9599 28.0918 13.9599 26.8351C13.9599 25.5746 14.9807 24.5537 16.2373 24.5537C17.4979 24.5537 18.5187 25.5746 18.5187 26.8351C18.5188 28.0918 17.4979 29.1126 16.2373 29.1126ZM21.1388 35.5326C19.8822 35.5326 18.8614 34.5118 18.8614 33.2552C18.8614 31.9946 19.8821 30.9738 21.1388 30.9738C22.3994 30.9738 23.4202 31.9946 23.4202 33.2552C23.4203 34.5119 22.3995 35.5326 21.1388 35.5326ZM26.0405 29.1126C24.7838 29.1126 23.763 28.0918 23.763 26.8351C23.763 25.5746 24.7838 24.5537 26.0405 24.5537C27.301 24.5537 28.3218 25.5746 28.3218 26.8351C28.3216 28.0918 27.301 29.1126 26.0405 29.1126Z" fill="#E5D418"/>
</g>
<defs>
<clipPath id="clip0_84_449">
<rect width="53" height="53" fill="white" transform="translate(0.62439 0.572994)"/>
</clipPath>
</defs>
</svg>
